<?xml version="1.0" encoding="UTF-8"?>
<svg version="1.1" xmlns="http://www.w3.org/2000/svg" width="390" height="390">
<path d="M0 0 C2.75485711 2.24123968 5.39723687 4.58453248 8 7 C7.67 8.32 7.34 9.64 7 11 C7.62648437 11.24878906 8.25296875 11.49757813 8.8984375 11.75390625 C12.66986054 13.99012177 12.93899146 17.96381471 14 22 C15.66723954 29.40931333 16.29343968 36.47996555 16.1875 44.0625 C16.17960449 45.05403076 16.17170898 46.04556152 16.16357422 47.06713867 C15.83978662 75.48064013 15.83978662 75.48064013 12 87 C11.47325225 89.30863663 10.98705275 91.62410057 10.5 93.94140625 C10 96 10 96 9 98 C10.62808594 98.18175781 10.62808594 98.18175781 12.2890625 98.3671875 C13.73441404 98.53612469 15.17972442 98.70541425 16.625 98.875 C17.33785156 98.95363281 18.05070313 99.03226562 18.78515625 99.11328125 C23.0927161 99.62702692 26.89970928 100.51379147 31 102 C32.32914897 102.32984395 33.66216975 102.64484963 35 102.9375 C39.86035347 104.1177388 43.84611869 106.23074579 48 109 C50.17798156 110.16159016 52.31540876 111.12015572 54.625 112 C57.28927343 113.12179934 58.543969 114.38435816 60.25 116.6875 C62.13274506 119.17541312 64.14192525 121.50834941 66.19140625 123.859375 C67.56681262 125.48728578 68.90083089 127.15026731 70.21484375 128.828125 C70.98957031 129.81296875 71.76429688 130.7978125 72.5625 131.8125 C73.28566406 132.74707031 74.00882813 133.68164062 74.75390625 134.64453125 C77.09411008 137.09869284 78.78963403 138.02391333 82 139 C81.6596875 139.804375 81.6596875 139.804375 81.3125 140.625 C80.8471453 144.16169569 82.13265035 146.03799711 84 149 C84.65387695 149.29801514 85.30775391 149.59603027 85.98144531 149.90307617 C89.94186169 152.05524729 90.71854942 156.90959294 92 161 C92.94701998 164.70424318 93.64095828 168.41394637 94.25 172.1875 C94.50148804 173.73377075 94.50148804 173.73377075 94.75805664 175.3112793 C95.85527008 182.65039326 96.39095951 189.89357841 96.4375 197.3125 C96.44749023 198.22346436 96.45748047 199.13442871 96.46777344 200.07299805 C96.38340635 206.65182291 96.08129781 215.51979559 91.52905273 220.66137695 C90.77217163 221.32399536 90.77217163 221.32399536 90 222 C86.44879431 225.99594669 86.44879431 225.99594669 85 231 C85.33 231.66 85.66 232.32 86 233 C84.90365234 233.34611328 84.90365234 233.34611328 83.78515625 233.69921875 C80.46981111 235.24761977 78.81918487 237.04974555 76.4375 239.8125 C75.69371094 240.66457031 74.94992187 241.51664063 74.18359375 242.39453125 C68.91763508 248.54487738 68.91763508 248.54487738 66 256 C66.33 256.99 66.66 257.98 67 259 C67.25447529 262.16166264 67.23816168 265.32906375 67.25 268.5 C67.25394775 269.39895996 67.25789551 270.29791992 67.26196289 271.22412109 C67.20973846 277.19062746 66.56843551 282.43827504 64.55859375 288.1015625 C63.74730362 290.06252394 63.74730362 290.06252394 65 292 C62.62254983 295.56617526 60.90730957 296.34690749 57 298 C55.00550798 298.3648461 53.00572666 298.70306281 51 299 C50.94465088 300.08829102 50.88930176 301.17658203 50.83227539 302.29785156 C50.62360148 306.39072584 50.4123778 310.48346545 50.20043945 314.57617188 C50.10958997 316.33720462 50.01940386 318.09827174 49.92993164 319.859375 C49.67653835 324.84230458 49.40700463 329.82388452 49.11895752 334.80493164 C49.01122506 336.79286905 48.92962649 338.78218023 48.85107422 340.77148438 C48.76817139 342.36186523 48.76817139 342.36186523 48.68359375 343.984375 C48.6467749 344.87350586 48.60995605 345.76263672 48.57202148 346.67871094 C47.81482315 349.75145604 46.36249868 350.95208424 44 353 C40.59346112 356.16321468 38.40508004 358.52929078 37 363 C32.54210601 363.84546265 29.96281123 364.32093708 25.625 362.875 C22.64533737 360.74666955 22.15639839 359.38024145 21 356 C20.01 355.67 19.02 355.34 18 355 C17.67 350.71 17.34 346.42 17 342 C15.865625 342.20496094 14.73125 342.40992188 13.5625 342.62109375 C12.04168618 342.8933382 10.52085174 343.16546745 9 343.4375 C7.88431641 343.63956055 7.88431641 343.63956055 6.74609375 343.84570312 C5.63427734 344.04389648 5.63427734 344.04389648 4.5 344.24609375 C3.8296875 344.36654053 3.159375 344.4869873 2.46875 344.61108398 C-3.94145424 345.62091936 -10.14389057 346.16551408 -16.625 346.203125 C-17.43776398 346.20995804 -18.25052795 346.21679108 -19.08792114 346.22383118 C-21.72532315 346.24089703 -24.36254591 346.24716608 -27 346.25 C-27.90151794 346.25200409 -28.80303589 346.25400818 -29.73187256 346.256073 C-49.28412238 346.26666703 -68.65688796 344.95599487 -88 342 C-88.10957031 342.81984375 -88.21914062 343.6396875 -88.33203125 344.484375 C-88.49058594 345.56203125 -88.64914063 346.6396875 -88.8125 347.75 C-88.96332031 348.81734375 -89.11414063 349.8846875 -89.26953125 350.984375 C-90.02780711 354.11479728 -90.80582814 355.6792413 -93 358 C-98.20759148 360.85906983 -102.07905705 361.66849356 -108 361 C-111.11727843 359.20922303 -112.65299949 358.16718354 -113.6875 354.6875 C-113.790625 353.800625 -113.89375 352.91375 -114 352 C-114.32742187 350.97390625 -114.65484375 349.9478125 -114.9921875 348.890625 C-116.44824293 343.91376381 -116.38677553 338.91031694 -116.47851562 333.75976562 C-116.64608157 328.97391886 -117.47597274 325.26071784 -119.30737305 320.84155273 C-120.2830033 318.24755237 -120.51538201 315.7538878 -120.6875 313 C-120.75324219 312.05125 -120.81898437 311.1025 -120.88671875 310.125 C-120.92410156 309.42375 -120.96148437 308.7225 -121 308 C-121.66 308 -122.32 308 -123 308 C-123.495 303.05 -123.495 303.05 -124 298 C-125.3921875 297.62875 -125.3921875 297.62875 -126.8125 297.25 C-132.21981435 295.12948457 -133.57917273 291.07220952 -136 286 C-136.66 286 -137.32 286 -138 286 C-138.81898622 282.42649959 -139.11811958 279.14340521 -139.09765625 275.48046875 C-139.09443359 274.45888672 -139.09121094 273.43730469 -139.08789062 272.38476562 C-139.07951172 271.32966797 -139.07113281 270.27457031 -139.0625 269.1875 C-139.05798828 268.11306641 -139.05347656 267.03863281 -139.04882812 265.93164062 C-139.03707729 263.28770317 -139.02064787 260.64388048 -139 258 C-139.66 258 -140.32 258 -141 258 C-142.02611949 256.34928604 -143.02308143 254.68029994 -144 253 C-145.59514781 251.12743518 -146.7960517 250.10197415 -149 249 C-151.18929953 247.90535023 -152.46398023 246.90173876 -154 245 C-154.12632812 244.39414062 -154.25265625 243.78828125 -154.3828125 243.1640625 C-155.14931014 240.4764695 -156.45414789 238.93869185 -158.1875 236.75 C-161.95341602 231.5921643 -163.9928388 226.28660756 -165.95776367 220.27050781 C-166.5599636 218.48522293 -167.27222339 216.73788034 -168 215 C-168.99 214.67 -169.98 214.34 -171 214 C-171.31727525 198.66828354 -171.50678383 183.99013812 -168 169 C-167.66156361 167.33436207 -167.3260256 165.66811157 -167 164 C-166.01 164 -165.02 164 -164 164 C-163.54560547 162.85724609 -163.54560547 162.85724609 -163.08203125 161.69140625 C-160.69813397 155.81601635 -158.2136205 150.30177132 -154.8203125 144.9375 C-153.79768973 142.5221624 -154.32491969 141.46506599 -155 139 C-153.125 136.875 -153.125 136.875 -151 135 C-150.67 134.34 -150.34 133.68 -150 133 C-149.26136719 132.72800781 -148.52273437 132.45601562 -147.76171875 132.17578125 C-144.3580758 130.72670554 -142.41053583 128.80911861 -139.8125 126.1875 C-138.95269531 125.33542969 -138.09289062 124.48335938 -137.20703125 123.60546875 C-135.06866647 121.08106289 -134.1335344 119.06054289 -133 116 C-131.0625 115.375 -131.0625 115.375 -129 115 C-127.97895449 114.02149805 -126.9793879 113.02019573 -126 112 C-124.68144572 111.30455998 -123.34581452 110.6410971 -122 110 C-121.36320312 109.68160156 -120.72640625 109.36320312 -120.0703125 109.03515625 C-118.71301993 108.35650997 -117.35487893 107.67955906 -115.99609375 107.00390625 C-114.38162974 106.19193512 -112.78204412 105.35042353 -111.1875 104.5 C-102.2216304 100.28076725 -93.94993248 98 -84 98 C-83.34 98.66 -82.68 99.32 -82 100 C-81.34 99.34 -80.68 98.68 -80 98 C-80.45246094 97.4534375 -80.90492188 96.906875 -81.37109375 96.34375 C-90.85770145 82.69395474 -89.62517304 60.72464723 -88 45 C-87.34 45 -86.68 45 -86 45 C-85.81824219 44.03320312 -85.63648438 43.06640625 -85.44921875 42.0703125 C-82.46690135 26.47343559 -78.62165796 10.62165796 -67 -1 C-64.262085 -1.13689575 -61.72103773 -1.14694617 -59 -1 C-57.906875 -0.95875 -56.81375 -0.9175 -55.6875 -0.875 C-53 -0 -53 -0 -51.125 3.0625 C-50.75375 4.031875 -50.3825 5.00125 -50 6 C-49.34 6 -48.68 6 -48 6 C-48.495 5.01 -48.495 5.01 -49 4 C-48.01 4.33 -47.02 4.66 -46 5 C-45.87625 5.78375 -45.7525 6.5675 -45.625 7.375 C-45.20882007 10.14057822 -45.20882007 10.14057822 -43 12 C-39.88621918 22.25716034 -39.86262795 32.62738687 -39.9375 43.26953125 C-39.94317993 45.12828133 -39.94317993 45.12828133 -39.94897461 47.02458191 C-39.9631789 51.62193535 -39.98657312 56.21921608 -40.01037598 60.81652832 C-40.03327494 65.34252136 -40.04861585 69.86850303 -40.0625 74.39453125 C-40.07079834 75.5841597 -40.07909668 76.77378815 -40.08764648 77.99946594 C-40.09260132 79.66225838 -40.09260132 79.66225838 -40.09765625 81.35864258 C-40.10289307 82.32997635 -40.10812988 83.30131012 -40.11352539 84.30207825 C-40.00131039 86.96885869 -39.59740081 89.40255782 -39 92 C-36.36 92.33 -33.72 92.66 -31 93 C-31.16242188 91.71609375 -31.32484375 90.4321875 -31.4921875 89.109375 C-32.20393561 81.96171377 -32.14955416 74.80825586 -32.13037109 67.63378906 C-32.12504239 65.26881404 -32.13032694 62.90403153 -32.13671875 60.5390625 C-32.14033549 51.31058703 -31.81444888 42.19826315 -31 33 C-30.34 33 -29.68 33 -29 33 C-28.92652344 31.42412109 -28.92652344 31.42412109 -28.8515625 29.81640625 C-27.80379187 9.35807555 -27.80379187 9.35807555 -23 4 C-22.360625 2.948125 -21.72125 1.89625 -21.0625 0.8125 C-19 -2 -19 -2 -17.1796875 -2.6953125 C-11.64357636 -3.4691775 -4.85832213 -2.81271281 0 0 Z M5 8 C6 10 6 10 6 10 Z M-47 10 C-46 12 -46 12 -46 12 Z M-46 12 C-45 14 -45 14 -45 14 Z M8 13 C9 15 9 15 9 15 Z M-45 14 C-44 17 -44 17 -44 17 Z M9 15 C10 18 10 18 10 18 Z M-44 17 C-43 21 -43 21 -43 21 Z M10 18 C11 20 11 20 11 20 Z M-43 21 C-43 25.29 -43 29.58 -43 34 C-42.67 34 -42.34 34 -42 34 C-42 29.71 -42 25.42 -42 21 C-42.33 21 -42.66 21 -43 21 Z M11 21 C12 23 12 23 12 23 Z M12 23 C12 25.31 12 27.62 12 30 C12.33 30 12.66 30 13 30 C13 27.69 13 25.38 13 23 C12.67 23 12.34 23 12 23 Z M13 30 C14 34 14 34 14 34 Z M-42 34 C-42 36.97 -42 39.94 -42 43 C-41.67 43 -41.34 43 -41 43 C-41 40.03 -41 37.06 -41 34 C-41.33 34 -41.66 34 -42 34 Z M14 34 C14 38.62 14 43.24 14 48 C14.33 48 14.66 48 15 48 C15 43.38 15 38.76 15 34 C14.67 34 14.34 34 14 34 Z M-43 46 C-43 60.19 -43 74.38 -43 89 C-42.67 89 -42.34 89 -42 89 C-42 74.81 -42 60.62 -42 46 C-42.33 46 -42.66 46 -43 46 Z M13 48 C13 54.93 13 61.86 13 69 C13.33 69 13.66 69 14 69 C14 62.07 14 55.14 14 48 C13.67 48 13.34 48 13 48 Z M-31 53 C-31 56.96 -31 60.92 -31 65 C-30.67 65 -30.34 65 -30 65 C-30 61.04 -30 57.08 -30 53 C-30.33 53 -30.66 53 -31 53 Z M-30 65 C-30 67.97 -30 70.94 -30 74 C-29.67 74 -29.34 74 -29 74 C-29 71.03 -29 68.06 -29 65 C-29.33 65 -29.66 65 -30 65 Z M12 69 C12 71.64 12 74.28 12 77 C12.33 77 12.66 77 13 77 C13 74.36 13 71.72 13 69 C12.67 69 12.34 69 12 69 Z M-86 71 C-86.04125 72.2375 -86.0825 73.475 -86.125 74.75 C-86.14820313 75.44609375 -86.17140625 76.1421875 -86.1953125 76.859375 C-86.09248991 79.42184168 -86.09248991 79.42184168 -84 83 C-84.33 79.04 -84.66 75.08 -85 71 C-85.33 71 -85.66 71 -86 71 Z M-31 74 C-30 78 -30 78 -30 78 Z M11 77 C12 81 12 81 12 81 Z M-30 79 C-30 84.28 -30 89.56 -30 95 C-29.67 95 -29.34 95 -29 95 C-29 89.72 -29 84.44 -29 79 C-29.33 79 -29.66 79 -30 79 Z M10 81 C11 84 11 84 11 84 Z M-84 83 C-83 86 -83 86 -83 86 Z M9 85 C9 86.65 9 88.3 9 90 C9.33 90 9.66 90 10 90 C10 88.35 10 86.7 10 85 C9.67 85 9.34 85 9 85 Z M-83 86 C-82 89 -82 89 -82 89 Z M-82 89 C-81 92 -81 92 -81 92 Z M-42 89 C-42 91.31 -42 93.62 -42 96 C-41.67 96 -41.34 96 -41 96 C-41 93.69 -41 91.38 -41 89 C-41.33 89 -41.66 89 -42 89 Z M8 90 C9 93 9 93 9 93 Z M-81 92 C-80 94 -80 94 -80 94 Z M7 93 C8 95 8 95 8 95 Z M-80 94 C-79 96 -79 96 -79 96 Z M-35 94 C-31 95 -31 95 -31 95 Z M6 95 C7 98 7 98 7 98 Z M-78 98 C-77 100 -77 100 -77 100 Z M5 98 C6 101 6 101 6 101 Z M4 101 C5 103 5 103 5 103 Z M85 151 C86 153 86 153 86 153 Z M86 153 C86.33 154.65 86.66 156.3 87 158 C87.33 157.01 87.66 156.02 88 155 C87.34 154.34 86.68 153.68 86 153 Z M88 159 C89 161 89 161 89 161 Z M89 161 C89.33 162.98 89.66 164.96 90 167 C90.6814823 165.10820797 90.6814823 165.10820797 91 163 C90.34 162.34 89.68 161.68 89 161 Z M91 167 C91 169.64 91 172.28 91 175 C91.33 175 91.66 175 92 175 C92 172.36 92 169.72 92 167 C91.67 167 91.34 167 91 167 Z M-166 168 C-165 170 -165 170 -165 170 Z M-167 170 C-167 172.31 -167 174.62 -167 177 C-166.67 177 -166.34 177 -166 177 C-166 174.69 -166 172.38 -166 170 C-166.33 170 -166.66 170 -167 170 Z M92 175 C92 176.98 92 178.96 92 181 C92.33 181 92.66 181 93 181 C93 179.02 93 177.04 93 175 C92.67 175 92.34 175 92 175 Z M-168 177 C-168 179.31 -168 181.62 -168 184 C-167.67 184 -167.34 184 -167 184 C-167 181.69 -167 179.38 -167 177 C-167.33 177 -167.66 177 -168 177 Z M93 181 C93 190.9 93 200.8 93 211 C93.33 211 93.66 211 94 211 C95.32818549 200.8725856 95.23124985 191.13582468 94 181 C93.67 181 93.34 181 93 181 Z M-169 185 C-169 186.65 -169 188.3 -169 190 C-168.67 190 -168.34 190 -168 190 C-168 188.35 -168 186.7 -168 185 C-168.33 185 -168.66 185 -169 185 Z M-170 190 C-170 196.6 -170 203.2 -170 210 C-169.67 210 -169.34 210 -169 210 C-169 203.4 -169 196.8 -169 190 C-169.33 190 -169.66 190 -170 190 Z M92 211 C93 214 93 214 93 214 Z M91 214 C92 217 92 217 92 217 Z M90 217 C91 220 91 220 91 220 Z M-137 257 C-137 258.98 -137 260.96 -137 263 C-136.67 263 -136.34 263 -136 263 C-136 261.02 -136 259.04 -136 257 C-136.33 257 -136.66 257 -137 257 Z M-138 265 C-138 268.96 -138 272.92 -138 277 C-137.67 277 -137.34 277 -137 277 C-137 273.04 -137 269.08 -137 265 C-137.33 265 -137.66 265 -138 265 Z M62 290 C63 292 63 292 63 292 Z M-123 295 C-122 298 -122 298 -122 298 Z M49 295 C50 298 50 298 50 298 Z M48 298 C47.15672251 306.35748222 46.87809322 314.60197746 47 323 C47.33 323 47.66 323 48 323 C48.84327749 314.64251778 49.12190678 306.39802254 49 298 C48.67 298 48.34 298 48 298 Z M46 323 C46 330.59 46 338.18 46 346 C46.33 346 46.66 346 47 346 C47 338.41 47 330.82 47 323 C46.67 323 46.34 323 46 323 Z M-91 338 C-91 340.64 -91 343.28 -91 346 C-90.67 346 -90.34 346 -90 346 C-90 343.36 -90 340.72 -90 338 C-90.33 338 -90.66 338 -91 338 Z M-76 341 C-76 341.33 -76 341.66 -76 342 C-73.69 342 -71.38 342 -69 342 C-69 341.67 -69 341.34 -69 341 C-71.31 341 -73.62 341 -76 341 Z M5 341 C9 342 9 342 9 342 Z M-66 342 C-66 342.33 -66 342.66 -66 343 C-62.37 343 -58.74 343 -55 343 C-55 342.67 -55 342.34 -55 342 C-58.63 342 -62.26 342 -66 342 Z M-46 343 C-45 345 -45 345 -45 345 Z M-10 343 C-10 343.33 -10 343.66 -10 344 C-8.35 344 -6.7 344 -5 344 C-5 343.67 -5 343.34 -5 343 C-6.65 343 -8.3 343 -10 343 Z M19 343 C19 346.63 19 350.26 19 354 C19.33 354 19.66 354 20 354 C20 350.37 20 346.74 20 343 C19.67 343 19.34 343 19 343 Z M-43 344 C-43 344.33 -43 344.66 -43 345 C-33.43 345 -23.86 345 -14 345 C-14 344.67 -14 344.34 -14 344 C-23.57 344 -33.14 344 -43 344 Z M-92 346 C-92 347.65 -92 349.3 -92 351 C-91.67 351 -91.34 351 -91 351 C-91 349.35 -91 347.7 -91 346 C-91.33 346 -91.66 346 -92 346 Z M45 346 C46 348 46 348 46 348 Z M44 348 C45 351 45 351 45 351 Z M-93 351 C-92 354 -92 354 -92 354 Z " fill="#FDF0CA" transform="translate(233,15)"/>
<path d="M0 0 C0.99 0.99 0.99 0.99 2 2 C3.32 1.34 4.64 0.68 6 0 C9 3.75 9 3.75 9 6 C7.906875 6.103125 6.81375 6.20625 5.6875 6.3125 C2.09844268 6.62044201 2.09844268 6.62044201 0.52709961 8.48168945 C-1.3495231 10.34751146 -2.5372924 10.54573208 -5.12109375 10.98046875 C-9.99885562 11.93865341 -14.44606715 13.49221543 -19.0625 15.3125 C-19.81337891 15.59544922 -20.56425781 15.87839844 -21.33789062 16.16992188 C-37.85631071 22.60882201 -51.61701538 35.12096871 -61 50 C-61.67160156 51.0621875 -62.34320313 52.124375 -63.03515625 53.21875 C-68.07194194 61.46257912 -71.3406812 69.70950429 -74 79 C-74.17813232 79.59828613 -74.35626465 80.19657227 -74.53979492 80.81298828 C-78.25894243 98.4873243 -75.90085861 118.54721523 -66.625 134 C-65.44227869 135.68493843 -64.23559448 137.35344192 -63 139 C-62.52433594 139.69222656 -62.04867187 140.38445312 -61.55859375 141.09765625 C-56.05457548 148.32617111 -47.71079285 152.48275281 -40 157 C-41.875 160.875 -41.875 160.875 -43 162 C-43.25384564 166.09779385 -43.18523095 170.20777951 -43.1875 174.3125 C-43.20586914 176.0440332 -43.20586914 176.0440332 -43.22460938 177.81054688 C-43.22654297 178.92107422 -43.22847656 180.03160156 -43.23046875 181.17578125 C-43.23457764 182.19583252 -43.23868652 183.21588379 -43.24291992 184.2668457 C-42.9984039 187.01795814 -42.41268867 188.65508378 -41 191 C-37.82972763 190.33183313 -37.82972763 190.33183313 -36.8125 187.6875 C-35.83179798 183.23662161 -35.94437082 179.14768317 -36.125 174.609375 C-36 172 -36 172 -34 170 C-29.44444444 170.55555556 -29.44444444 170.55555556 -28 172 C-27.44404616 178.8745831 -27.6389936 183.88907927 -31 190 C-30.36572717 191.34904418 -29.6949504 192.68118759 -29 194 C-28.71289062 196.0078125 -28.71289062 196.0078125 -28.65625 198.125 C-28.62805176 198.90866943 -28.59985352 199.69233887 -28.57080078 200.49975586 C-28.54743652 201.32483643 -28.52407227 202.14991699 -28.5 203 C-28.75713691 215.64639439 -28.75713691 215.64639439 -24.46484375 226.796875 C-22.27916855 230.0841305 -22.50693855 233.48676644 -22.4375 237.3125 C-22.30605863 242.85737844 -22.00553373 247.78021018 -20 253 C-19.01 253.33 -18.02 253.66 -17 254 C-16.06693197 251.2007959 -15.8398554 249.30985593 -15.75390625 246.40234375 C-15.72103516 245.51869141 -15.68816406 244.63503906 -15.65429688 243.72460938 C-15.59297453 241.8627586 -15.53569894 240.00077024 -15.48242188 238.13867188 C-15.44826172 237.25630859 -15.41410156 236.37394531 -15.37890625 235.46484375 C-15.34132202 234.25235962 -15.34132202 234.25235962 -15.30297852 233.01538086 C-15 231 -15 231 -13 229 C-10.00238665 229.24980111 -7.9691779 230.01648624 -5.3125 231.4375 C1.92013018 234.84911801 10.23091525 235.40860557 18.125 236.109375 C19.06875488 236.19346619 20.01250977 236.27755737 20.98486328 236.36419678 C30.97400106 237.18272602 40.94103777 237.30261785 50.95898438 237.26074219 C53.99890059 237.25000388 57.0382262 237.26073053 60.078125 237.2734375 C70.09194697 237.28109826 80.0221259 236.9900114 90 236.109375 C90.88961426 236.03189026 91.77922852 235.95440552 92.69580078 235.87457275 C96.69201003 235.48257221 100.49171141 234.94185967 104.375 233.90722656 C108.51758056 232.87046543 110.88319105 233.14233147 115 234 C115.625 235.875 115.625 235.875 116 238 C115.34 238.66 114.68 239.32 114 240 C113.85482256 242.9093558 113.81369204 245.719946 113.875 248.625 C113.88402344 249.42679688 113.89304687 250.22859375 113.90234375 251.0546875 C113.92593777 253.03658523 113.96180935 255.01832981 114 257 C117.26460973 255.19587357 118.88929795 254.16605307 121 251 C121.24397366 248.46807335 121.24397366 248.46807335 121.125 245.609375 C121.09974243 243.97246704 121.09974243 243.97246704 121.07397461 242.30249023 C121.03735718 240.54400757 121.03735718 240.54400757 121 238.75 C120.85785929 226.04500392 121.66138488 213.62364892 123 201 C123.19003343 199.11600921 123.3788751 197.23189776 123.56640625 195.34765625 C123.64963135 194.51371338 123.73285645 193.67977051 123.81860352 192.82055664 C123.87846436 192.21977295 123.9383252 191.61898926 124 191 C124.99 190.67 125.98 190.34 127 190 C126.67 189.01 126.34 188.02 126 187 C125.85324265 184.54463658 125.77899302 182.08457448 125.75 179.625 C125.72421875 178.31789063 125.6984375 177.01078125 125.671875 175.6640625 C126.01086041 171.87872546 126.77974599 170.02655678 129 167 C132.875 167.875 132.875 167.875 134 169 C134.28967149 172.68756404 134.44915778 176.37551835 134.62109375 180.0703125 C135.00195088 184.02023282 135.7945956 187.2422616 137 191 C137.99 191 138.98 191 140 191 C141.85227409 185.50174766 142.27909113 180.71738251 142.1875 174.9375 C142.18685547 174.16083984 142.18621094 173.38417969 142.18554688 172.58398438 C142.1527911 168.28569837 141.84627427 164.23137134 141 160 C142.65 159.01 144.3 158.02 146 157 C145.67 156.67 145.34 156.34 145 156 C144.278125 156.33 143.55625 156.66 142.8125 157 C139.98302573 158.00603529 137.97104534 158.16977402 135 158 C134.34 156.68 133.68 155.36 133 154 C136.29712108 151.26131024 139.61853657 148.97755816 143.3125 146.8125 C155.76752195 138.86532781 163.00163109 126.0412204 167 112 C169.61914947 98.41103618 169.7819356 82.06804264 165 69 C164.67128906 67.97519531 164.34257812 66.95039063 164.00390625 65.89453125 C157.80611585 47.94452929 144.86532599 29.75892529 127.86425781 20.88525391 C118.19290274 16.18132748 108.78100846 13.0966473 98.125 11.66796875 C94.89844644 10.97829293 94.01849799 10.47216692 92 8 C89.89667109 7.28552357 89.89667109 7.28552357 88 7 C88.66 4.69 89.32 2.38 90 0 C122.93431856 1.93431856 122.93431856 1.93431856 132 11 C134.16409208 12.19398184 136.31324038 13.11932967 138.625 14 C141.28927343 15.12179934 142.543969 16.38435816 144.25 18.6875 C146.13274506 21.17541312 148.14192525 23.50834941 150.19140625 25.859375 C151.56681262 27.48728578 152.90083089 29.15026731 154.21484375 30.828125 C154.98957031 31.81296875 155.76429688 32.7978125 156.5625 33.8125 C157.28566406 34.74707031 158.00882813 35.68164062 158.75390625 36.64453125 C161.09411008 39.09869284 162.78963403 40.02391333 166 41 C165.6596875 41.804375 165.6596875 41.804375 165.3125 42.625 C164.8471453 46.16169569 166.13265035 48.03799711 168 51 C168.98081543 51.44702271 168.98081543 51.44702271 169.98144531 51.90307617 C173.94186169 54.05524729 174.71854942 58.90959294 176 63 C176.94701998 66.70424318 177.64095828 70.41394637 178.25 74.1875 C178.50148804 75.73377075 178.50148804 75.73377075 178.75805664 77.3112793 C179.85527008 84.65039326 180.39095951 91.89357841 180.4375 99.3125 C180.44749023 100.22346436 180.45748047 101.13442871 180.46777344 102.07299805 C180.38340635 108.65182291 180.08129781 117.51979559 175.52905273 122.66137695 C174.77217163 123.32399536 174.77217163 123.32399536 174 124 C170.44879431 127.99594669 170.44879431 127.99594669 169 133 C169.33 133.66 169.66 134.32 170 135 C168.90365234 135.34611328 168.90365234 135.34611328 167.78515625 135.69921875 C164.46981111 137.24761977 162.81918487 139.04974555 160.4375 141.8125 C159.69371094 142.66457031 158.94992187 143.51664063 158.18359375 144.39453125 C152.91763508 150.54487738 152.91763508 150.54487738 150 158 C150.33 158.99 150.66 159.98 151 161 C151.25447529 164.16166264 151.23816168 167.32906375 151.25 170.5 C151.25394775 171.39895996 151.25789551 172.29791992 151.26196289 173.22412109 C151.20973846 179.19062746 150.56843551 184.43827504 148.55859375 190.1015625 C147.74730362 192.06252394 147.74730362 192.06252394 149 194 C146.62254983 197.56617526 144.90730957 198.34690749 141 200 C139.00550798 200.3648461 137.00572666 200.70306281 135 201 C134.94465088 202.08829102 134.88930176 203.17658203 134.83227539 204.29785156 C134.62360148 208.39072584 134.4123778 212.48346545 134.20043945 216.57617188 C134.10958997 218.33720462 134.01940386 220.09827174 133.92993164 221.859375 C133.67653835 226.84230458 133.40700463 231.82388452 133.11895752 236.80493164 C133.01122506 238.79286905 132.92962649 240.78218023 132.85107422 242.77148438 C132.76817139 244.36186523 132.76817139 244.36186523 132.68359375 245.984375 C132.6467749 246.87350586 132.60995605 247.76263672 132.57202148 248.67871094 C131.81482315 251.75145604 130.36249868 252.95208424 128 255 C124.59346112 258.16321468 122.40508004 260.52929078 121 265 C116.54210601 265.84546265 113.96281123 266.32093708 109.625 264.875 C106.64533737 262.74666955 106.15639839 261.38024145 105 258 C104.01 257.67 103.02 257.34 102 257 C101.67 252.71 101.34 248.42 101 244 C99.865625 244.20496094 98.73125 244.40992188 97.5625 244.62109375 C96.04168618 244.8933382 94.52085174 245.16546745 93 245.4375 C91.88431641 245.63956055 91.88431641 245.63956055 90.74609375 245.84570312 C90.00488281 245.97783203 89.26367188 246.10996094 88.5 246.24609375 C87.49453125 246.42676392 87.49453125 246.42676392 86.46875 246.61108398 C80.05854576 247.62091936 73.85610943 248.16551408 67.375 248.203125 C66.56223602 248.20995804 65.74947205 248.21679108 64.91207886 248.22383118 C62.27467685 248.24089703 59.63745409 248.24716608 57 248.25 C56.09848206 248.25200409 55.19696411 248.25400818 54.26812744 248.256073 C34.71587762 248.26666703 15.34311204 246.95599487 -4 244 C-4.16435547 245.22976563 -4.16435547 245.22976563 -4.33203125 246.484375 C-4.49058594 247.56203125 -4.64914063 248.6396875 -4.8125 249.75 C-4.96332031 250.81734375 -5.11414063 251.8846875 -5.26953125 252.984375 C-6.02780711 256.11479728 -6.80582814 257.6792413 -9 260 C-14.20759148 262.85906983 -18.07905705 263.66849356 -24 263 C-27.11727843 261.20922303 -28.65299949 260.16718354 -29.6875 256.6875 C-29.8421875 255.3571875 -29.8421875 255.3571875 -30 254 C-30.49113281 252.46085937 -30.49113281 252.46085937 -30.9921875 250.890625 C-32.44824293 245.91376381 -32.38677553 240.91031694 -32.47851562 235.75976562 C-32.64608157 230.97391886 -33.47597274 227.26071784 -35.30737305 222.84155273 C-36.2830033 220.24755237 -36.51538201 217.7538878 -36.6875 215 C-36.75324219 214.05125 -36.81898437 213.1025 -36.88671875 212.125 C-36.92410156 211.42375 -36.96148437 210.7225 -37 210 C-37.66 210 -38.32 210 -39 210 C-39.33 206.7 -39.66 203.4 -40 200 C-41.3921875 199.62875 -41.3921875 199.62875 -42.8125 199.25 C-48.21981435 197.12948457 -49.57917273 193.07220952 -52 188 C-52.66 188 -53.32 188 -54 188 C-54.81898622 184.42649959 -55.11811958 181.14340521 -55.09765625 177.48046875 C-55.09443359 176.45888672 -55.09121094 175.43730469 -55.08789062 174.38476562 C-55.07951172 173.32966797 -55.07113281 172.27457031 -55.0625 171.1875 C-55.05798828 170.11306641 -55.05347656 169.03863281 -55.04882812 167.93164062 C-55.03707729 165.28770317 -55.02064787 162.64388048 -55 160 C-55.66 160 -56.32 160 -57 160 C-58.02611949 158.34928604 -59.02308143 156.68029994 -60 155 C-61.59514781 153.12743518 -62.7960517 152.10197415 -65 151 C-67.18929953 149.90535023 -68.46398023 148.90173876 -70 147 C-70.12632813 146.39414062 -70.25265625 145.78828125 -70.3828125 145.1640625 C-71.14931014 142.4764695 -72.45414789 140.93869185 -74.1875 138.75 C-77.95341602 133.5921643 -79.9928388 128.28660756 -81.95776367 122.27050781 C-82.5599636 120.48522293 -83.27222339 118.73788034 -84 117 C-84.99 116.67 -85.98 116.34 -87 116 C-87.31727525 100.66828354 -87.50678383 85.99013812 -84 71 C-83.66156361 69.33436207 -83.3260256 67.66811157 -83 66 C-82.01 66 -81.02 66 -80 66 C-79.69707031 65.23816406 -79.39414063 64.47632813 -79.08203125 63.69140625 C-76.69813397 57.81601635 -74.2136205 52.30177132 -70.8203125 46.9375 C-69.79768973 44.5221624 -70.32491969 43.46506599 -71 41 C-69.125 38.875 -69.125 38.875 -67 37 C-66.67 36.34 -66.34 35.68 -66 35 C-65.26136719 34.72800781 -64.52273437 34.45601562 -63.76171875 34.17578125 C-60.3580758 32.72670554 -58.41053583 30.80911861 -55.8125 28.1875 C-54.95269531 27.33542969 -54.09289062 26.48335937 -53.20703125 25.60546875 C-51.06866647 23.08106289 -50.1335344 21.06054289 -49 18 C-47.0625 17.375 -47.0625 17.375 -45 17 C-43.97895449 16.02149805 -42.9793879 15.02019573 -42 14 C-40.68144572 13.30455998 -39.34581452 12.6410971 -38 12 C-37.36320312 11.68160156 -36.72640625 11.36320312 -36.0703125 11.03515625 C-34.71301993 10.35650997 -33.35487893 9.67955906 -31.99609375 9.00390625 C-30.38162974 8.19193512 -28.78204412 7.35042353 -27.1875 6.5 C-18.30137115 2.31829231 -9.86225724 -0.48502904 0 0 Z M169 53 C170 55 170 55 170 55 Z M170 55 C170.33 56.65 170.66 58.3 171 60 C171.33 59.01 171.66 58.02 172 57 C171.34 56.34 170.68 55.68 170 55 Z M172 61 C173 63 173 63 173 63 Z M173 63 C173.33 64.98 173.66 66.96 174 69 C174.6814823 67.10820797 174.6814823 67.10820797 175 65 C174.34 64.34 173.68 63.68 173 63 Z M175 69 C175 71.64 175 74.28 175 77 C175.33 77 175.66 77 176 77 C176 74.36 176 71.72 176 69 C175.67 69 175.34 69 175 69 Z M-82 70 C-81 72 -81 72 -81 72 Z M-83 72 C-83 74.31 -83 76.62 -83 79 C-82.67 79 -82.34 79 -82 79 C-82 76.69 -82 74.38 -82 72 C-82.33 72 -82.66 72 -83 72 Z M176 77 C176 78.98 176 80.96 176 83 C176.33 83 176.66 83 177 83 C177 81.02 177 79.04 177 77 C176.67 77 176.34 77 176 77 Z M-84 79 C-84 81.31 -84 83.62 -84 86 C-83.67 86 -83.34 86 -83 86 C-83 83.69 -83 81.38 -83 79 C-83.33 79 -83.66 79 -84 79 Z M177 83 C177 92.9 177 102.8 177 113 C177.33 113 177.66 113 178 113 C179.32818549 102.8725856 179.23124985 93.13582468 178 83 C177.67 83 177.34 83 177 83 Z M-85 87 C-85 88.65 -85 90.3 -85 92 C-84.67 92 -84.34 92 -84 92 C-84 90.35 -84 88.7 -84 87 C-84.33 87 -84.66 87 -85 87 Z M-86 92 C-86 98.6 -86 105.2 -86 112 C-85.67 112 -85.34 112 -85 112 C-85 105.4 -85 98.8 -85 92 C-85.33 92 -85.66 92 -86 92 Z M176 113 C177 116 177 116 177 116 Z M175 116 C176 119 176 119 176 119 Z M174 119 C175 122 175 122 175 122 Z M-53 159 C-53 160.98 -53 162.96 -53 165 C-52.67 165 -52.34 165 -52 165 C-52 163.02 -52 161.04 -52 159 C-52.33 159 -52.66 159 -53 159 Z M-54 167 C-54 170.96 -54 174.92 -54 179 C-53.67 179 -53.34 179 -53 179 C-53 175.04 -53 171.08 -53 167 C-53.33 167 -53.66 167 -54 167 Z M146 192 C147 194 147 194 147 194 Z M-39 197 C-38 200 -38 200 -38 200 Z M133 197 C134 200 134 200 134 200 Z M132 200 C131.15672251 208.35748222 130.87809322 216.60197746 131 225 C131.33 225 131.66 225 132 225 C132.84327749 216.64251778 133.12190678 208.39802254 133 200 C132.67 200 132.34 200 132 200 Z M130 225 C130 232.59 130 240.18 130 248 C130.33 248 130.66 248 131 248 C131 240.41 131 232.82 131 225 C130.67 225 130.34 225 130 225 Z M-7 240 C-7 242.64 -7 245.28 -7 248 C-6.67 248 -6.34 248 -6 248 C-6 245.36 -6 242.72 -6 240 C-6.33 240 -6.66 240 -7 240 Z M8 243 C8 243.33 8 243.66 8 244 C10.31 244 12.62 244 15 244 C15 243.67 15 243.34 15 243 C12.69 243 10.38 243 8 243 Z M89 243 C93 244 93 244 93 244 Z M18 244 C18 244.33 18 244.66 18 245 C21.63 245 25.26 245 29 245 C29 244.67 29 244.34 29 244 C25.37 244 21.74 244 18 244 Z M38 245 C39 247 39 247 39 247 Z M74 245 C74 245.33 74 245.66 74 246 C75.65 246 77.3 246 79 246 C79 245.67 79 245.34 79 245 C77.35 245 75.7 245 74 245 Z M103 245 C103 248.63 103 252.26 103 256 C103.33 256 103.66 256 104 256 C104 252.37 104 248.74 104 245 C103.67 245 103.34 245 103 245 Z M41 246 C41 246.33 41 246.66 41 247 C50.57 247 60.14 247 70 247 C70 246.67 70 246.34 70 246 C60.43 246 50.86 246 41 246 Z M-8 248 C-8 249.65 -8 251.3 -8 253 C-7.67 253 -7.34 253 -7 253 C-7 251.35 -7 249.7 -7 248 C-7.33 248 -7.66 248 -8 248 Z M129 248 C130 250 130 250 130 250 Z M128 250 C129 253 129 253 129 253 Z M-9 253 C-8 256 -8 256 -8 256 Z " fill="#452C27" transform="translate(149,113)"/>
<path d="M0 0 C2.75485711 2.24123968 5.39723687 4.58453248 8 7 C7.67 8.32 7.34 9.64 7 11 C7.62648438 11.24878906 8.25296875 11.49757813 8.8984375 11.75390625 C12.66986054 13.99012177 12.93899146 17.96381471 14 22 C15.66723954 29.40931333 16.29343968 36.47996555 16.1875 44.0625 C16.17960449 45.05403076 16.17170898 46.04556152 16.16357422 47.06713867 C15.83978662 75.48064013 15.83978662 75.48064013 12 87 C11.47325225 89.30863663 10.98705275 91.62410057 10.5 93.94140625 C10 96 10 96 9 98 C8.01 98 7.02 98 6 98 C5.566875 98.94875 5.13375 99.8975 4.6875 100.875 C3 104 3 104 0 106 C-1.32 106 -2.64 106 -4 106 C-3.55415427 102.52240328 -2.83660999 99.55439089 -1.625 96.25 C6.29804852 72.55891402 6.95551584 39.18407798 -3 16 C-5.16086726 12.85206991 -7.82644895 11.1157007 -11 9 C-13.33199388 8.92094936 -15.66832622 8.91201231 -18 9 C-18.02283554 9.75738464 -18.04567108 10.51476929 -18.06919861 11.29510498 C-18.28766656 18.52928032 -18.50806631 25.76339328 -18.73049068 32.99744797 C-18.84470139 36.71408891 -18.9582353 40.43074763 -19.07006836 44.14746094 C-19.92620898 72.56795494 -19.92620898 72.56795494 -20.50390625 84.578125 C-20.53910873 85.3372821 -20.57431122 86.09643921 -20.61058044 86.87860107 C-21.30493685 100.30493685 -21.30493685 100.30493685 -24 103 C-26.61376953 103.22705078 -26.61376953 103.22705078 -29.8828125 103.1953125 C-31.63271484 103.18564453 -31.63271484 103.18564453 -33.41796875 103.17578125 C-34.64128906 103.15902344 -35.86460937 103.14226562 -37.125 103.125 C-38.35605469 103.11597656 -39.58710938 103.10695313 -40.85546875 103.09765625 C-43.90383815 103.07402548 -46.95182382 103.04108054 -50 103 C-51.89847187 98.99071985 -52.22704061 95.86069819 -52.16357422 91.4440918 C-52.15051239 90.13470139 -52.13745056 88.82531097 -52.12399292 87.47624207 C-52.11251095 86.78021566 -52.10102898 86.08418926 -52.08919907 85.36707115 C-52.05414793 83.16532563 -52.03373003 80.96387641 -52.0173645 78.76191711 C-51.96874097 72.50269502 -51.89837994 66.24386581 -51.80810547 59.98510742 C-51.75378106 56.14733856 -51.72018857 52.3098041 -51.69836807 48.47171974 C-51.68614032 47.02511831 -51.6663815 45.57855615 -51.6382103 44.13217735 C-51.48672786 36.27397732 -51.92591907 28.94483908 -53.77001953 21.29614258 C-53.92570845 20.63760379 -54.08139736 19.979065 -54.24180412 19.30057049 C-55.37344635 15.0689942 -56.96758021 12.1556502 -60 9 C-62.45434867 7.91638961 -62.45434867 7.91638961 -65 9 C-75.81928206 20.27828191 -77.07439987 42.78243164 -77.3125 57.6875 C-76.98724829 70.71170992 -76.43874692 86.28757088 -69.37109375 97.609375 C-68 100 -68 100 -68 104 C-70.1875 104.375 -70.1875 104.375 -73 104 C-74.73223664 102.05651499 -76.39881603 100.05279996 -78 98 C-79.01513672 97.53980469 -79.01513672 97.53980469 -80.05078125 97.0703125 C-82 96 -82 96 -82.9765625 94.046875 C-83.29753906 92.90992187 -83.29753906 92.90992187 -83.625 91.75 C-83.84414062 91.00234375 -84.06328125 90.2546875 -84.2890625 89.484375 C-84.52367187 88.66453125 -84.75828125 87.8446875 -85 87 C-85.50080078 85.65808594 -85.50080078 85.65808594 -86.01171875 84.2890625 C-87.27464307 80.08597051 -87.76038878 75.98303897 -88.1875 71.625 C-88.27499512 70.75391602 -88.36249023 69.88283203 -88.45263672 68.98535156 C-89.17403048 60.88626821 -88.83523099 53.08142418 -88 45 C-87.34 45 -86.68 45 -86 45 C-85.81824219 44.03320312 -85.63648438 43.06640625 -85.44921875 42.0703125 C-82.46690135 26.47343559 -78.62165796 10.62165796 -67 -1 C-64.262085 -1.13689575 -61.72103773 -1.14694617 -59 -1 C-57.906875 -0.95875 -56.81375 -0.9175 -55.6875 -0.875 C-53 -0 -53 -0 -51.125 3.0625 C-50.75375 4.031875 -50.3825 5.00125 -50 6 C-49.34 6 -48.68 6 -48 6 C-48.495 5.01 -48.495 5.01 -49 4 C-48.01 4.33 -47.02 4.66 -46 5 C-45.87625 5.78375 -45.7525 6.5675 -45.625 7.375 C-45.20882007 10.14057822 -45.20882007 10.14057822 -43 12 C-39.88621918 22.25716034 -39.86262795 32.62738687 -39.9375 43.26953125 C-39.94128662 44.50869797 -39.94507324 45.74786469 -39.94897461 47.02458191 C-39.9631789 51.62193535 -39.98657312 56.21921608 -40.01037598 60.81652832 C-40.03327494 65.34252136 -40.04861585 69.86850303 -40.0625 74.39453125 C-40.07079834 75.5841597 -40.07909668 76.77378815 -40.08764648 77.99946594 C-40.09094971 79.10799423 -40.09425293 80.21652252 -40.09765625 81.35864258 C-40.10289307 82.32997635 -40.10812988 83.30131012 -40.11352539 84.30207825 C-40.00131039 86.96885869 -39.59740081 89.40255782 -39 92 C-36.36 92.33 -33.72 92.66 -31 93 C-31.16242188 91.71609375 -31.32484375 90.4321875 -31.4921875 89.109375 C-32.20393561 81.96171377 -32.14955416 74.80825586 -32.13037109 67.63378906 C-32.12504239 65.26881404 -32.13032694 62.90403153 -32.13671875 60.5390625 C-32.14033549 51.31058703 -31.81444888 42.19826315 -31 33 C-30.34 33 -29.68 33 -29 33 C-28.95101562 31.94941406 -28.90203125 30.89882813 -28.8515625 29.81640625 C-27.80379187 9.35807555 -27.80379187 9.35807555 -23 4 C-22.360625 2.948125 -21.72125 1.89625 -21.0625 0.8125 C-19 -2 -19 -2 -17.1796875 -2.6953125 C-11.64357636 -3.4691775 -4.85832213 -2.81271281 0 0 Z M5 8 C6 10 6 10 6 10 Z M-47 10 C-46 12 -46 12 -46 12 Z M-46 12 C-45 14 -45 14 -45 14 Z M8 13 C9 15 9 15 9 15 Z M-45 14 C-44 17 -44 17 -44 17 Z M9 15 C10 18 10 18 10 18 Z M-44 17 C-43 21 -43 21 -43 21 Z M10 18 C11 20 11 20 11 20 Z M-43 21 C-43 25.29 -43 29.58 -43 34 C-42.67 34 -42.34 34 -42 34 C-42 29.71 -42 25.42 -42 21 C-42.33 21 -42.66 21 -43 21 Z M11 21 C12 23 12 23 12 23 Z M12 23 C12 25.31 12 27.62 12 30 C12.33 30 12.66 30 13 30 C13 27.69 13 25.38 13 23 C12.67 23 12.34 23 12 23 Z M13 30 C14 34 14 34 14 34 Z M-42 34 C-42 36.97 -42 39.94 -42 43 C-41.67 43 -41.34 43 -41 43 C-41 40.03 -41 37.06 -41 34 C-41.33 34 -41.66 34 -42 34 Z M14 34 C14 38.62 14 43.24 14 48 C14.33 48 14.66 48 15 48 C15 43.38 15 38.76 15 34 C14.67 34 14.34 34 14 34 Z M-43 46 C-43 60.19 -43 74.38 -43 89 C-42.67 89 -42.34 89 -42 89 C-42 74.81 -42 60.62 -42 46 C-42.33 46 -42.66 46 -43 46 Z M13 48 C13 54.93 13 61.86 13 69 C13.33 69 13.66 69 14 69 C14 62.07 14 55.14 14 48 C13.67 48 13.34 48 13 48 Z M-31 53 C-31 56.96 -31 60.92 -31 65 C-30.67 65 -30.34 65 -30 65 C-30 61.04 -30 57.08 -30 53 C-30.33 53 -30.66 53 -31 53 Z M-30 65 C-30 67.97 -30 70.94 -30 74 C-29.67 74 -29.34 74 -29 74 C-29 71.03 -29 68.06 -29 65 C-29.33 65 -29.66 65 -30 65 Z M12 69 C12 71.64 12 74.28 12 77 C12.33 77 12.66 77 13 77 C13 74.36 13 71.72 13 69 C12.67 69 12.34 69 12 69 Z M-86 71 C-86.04125 72.2375 -86.0825 73.475 -86.125 74.75 C-86.14820313 75.44609375 -86.17140625 76.1421875 -86.1953125 76.859375 C-86.09248991 79.42184168 -86.09248991 79.42184168 -84 83 C-84.33 79.04 -84.66 75.08 -85 71 C-85.33 71 -85.66 71 -86 71 Z M-31 74 C-30 78 -30 78 -30 78 Z M11 77 C12 81 12 81 12 81 Z M-30 79 C-30 84.28 -30 89.56 -30 95 C-29.67 95 -29.34 95 -29 95 C-29 89.72 -29 84.44 -29 79 C-29.33 79 -29.66 79 -30 79 Z M10 81 C11 84 11 84 11 84 Z M-84 83 C-83 86 -83 86 -83 86 Z M9 85 C9 86.65 9 88.3 9 90 C9.33 90 9.66 90 10 90 C10 88.35 10 86.7 10 85 C9.67 85 9.34 85 9 85 Z M-83 86 C-82 89 -82 89 -82 89 Z M-82 89 C-81 92 -81 92 -81 92 Z M-42 89 C-42 91.31 -42 93.62 -42 96 C-41.67 96 -41.34 96 -41 96 C-41 93.69 -41 91.38 -41 89 C-41.33 89 -41.66 89 -42 89 Z M8 90 C9 93 9 93 9 93 Z M-81 92 C-80 94 -80 94 -80 94 Z M7 93 C8 95 8 95 8 95 Z M-80 94 C-79 96 -79 96 -79 96 Z M-35 94 C-31 95 -31 95 -31 95 Z " fill="#432A26" transform="translate(233,15)"/>
<path d="M0 0 C8.09697737 7.11449895 9.08447827 20.15039182 9.85058594 30.40966797 C10.98870308 50.14075108 11.61314946 71.7124821 3 90 C-3.43194687 89.39321256 -3.43194687 89.39321256 -5.74584961 87.79150391 C-7.52741466 85.24660915 -7.12988198 83.70089847 -6.75390625 80.6484375 C-6.63547363 79.5769043 -6.51704102 78.50537109 -6.39501953 77.40136719 C-6.26466309 76.27891602 -6.13430664 75.15646484 -6 74 C-5.81174256 71.80551203 -5.63339895 69.61015163 -5.46484375 67.4140625 C-5.37750977 66.30651611 -5.29017578 65.19896973 -5.20019531 64.05786133 C-3.98995756 48.24266328 -3.83181328 33.24524581 -5.28808594 17.43481445 C-5.76219945 12.26301213 -6.11687693 7.19371869 -6 2 C-4.02 1.34 -2.04 0.68 0 0 Z " fill="#FAC2C7" transform="translate(227,27)"/>
<path d="M0 0 C6.56024616 6.77892104 6.23435352 15.0054641 6.17285156 23.94067383 C6.10646773 27.81739965 5.89300091 31.64403457 5.5 35.5 C4.13811797 49.88857972 4.05245396 64.81991363 7 79 C7.37784153 81.10365827 7.75295852 83.20780822 8.125 85.3125 C8.41482806 86.87534209 8.70575249 88.43798396 9 90 C7.02 90.99 7.02 90.99 5 92 C4.01 91.34 3.02 90.68 2 90 C1.01 90.99 1.01 90.99 0 92 C-6.77897948 80.69243996 -9.55697374 67.08773421 -10 54 C-10.0515625 52.91074219 -10.103125 51.82148437 -10.15625 50.69921875 C-10.59990424 33.4891314 -7.98846681 15.38687642 0 0 Z " fill="#F8C1C5" transform="translate(165,26)"/>
<path d="M0 0 C0.804375 0.515625 1.60875 1.03125 2.4375 1.5625 C5.01792892 5.58796911 5.2161512 10.28069882 5 15 C2.87484671 18.18772993 1.33484279 19.24920753 -2 21 C-2.66 21 -3.32 21 -4 21 C-4.66 18.69 -5.32 16.38 -6 14 C-6.78375 14.99 -7.5675 15.98 -8.375 17 C-9.24125 17.99 -10.1075 18.98 -11 20 C-11.66 20 -12.32 20 -13 20 C-13.33 17.69 -13.66 15.38 -14 13 C-14.54269531 13.51691406 -15.08539063 14.03382813 -15.64453125 14.56640625 C-16.35996094 15.22511719 -17.07539062 15.88382813 -17.8125 16.5625 C-18.87404297 17.55443359 -18.87404297 17.55443359 -19.95703125 18.56640625 C-20.63121094 19.03949219 -21.30539063 19.51257813 -22 20 C-22.99 19.67 -23.98 19.34 -25 19 C-25.14285714 11.57142857 -25.14285714 11.57142857 -24 8 C-24.99 8 -25.98 8 -27 8 C-27.268125 8.70125 -27.53625 9.4025 -27.8125 10.125 C-29.0681449 13.1649824 -30.50235123 16.0727774 -32 19 C-32.99 19 -33.98 19 -35 19 C-35.43761888 10.68524134 -33.01552622 5.20767225 -28.37890625 -1.6171875 C-22.19212285 -7.8214972 -6.29398134 -4.62315639 0 0 Z " fill="#F4C1C4" transform="translate(144,207)"/>
<path d="M0 0 C4.83763525 2.32923179 7.63619663 5.18147775 10 10 C10.81940711 14.65724245 10.45876794 18.02741196 8.4375 22.3125 C4.60116874 26.54230114 1.22018073 28.6366977 -4.4375 29.5625 C-9.1658974 28.81591094 -12.36886113 27.09137498 -16 24 C-18.98206253 19.89966403 -19.53513967 16.13627105 -19.3515625 11.1796875 C-18.62943524 6.70249851 -16.17243938 4.03450534 -12.875 1.125 C-8.55384081 -0.56588838 -4.57610253 -0.65372893 0 0 Z " fill="#4C302A" transform="translate(237,178)"/>
<path d="M0 0 C3.94240819 2.36544491 6.72480572 4.92441717 8.1875 9.3125 C8.61074134 15.76693051 7.9587836 19.96386565 3.6875 25.125 C-0.34965553 28.32108146 -5.95083831 27.86530577 -10.8125 27.3125 C-15.94558791 24.69929161 -18.9922908 21.77312759 -20.8125 16.3125 C-21.42850642 12.28896441 -21.69291726 8.77534714 -19.54296875 5.203125 C-14.00926512 -1.31345057 -8.29805182 -2.02841267 0 0 Z " fill="#452923" transform="translate(166.8125,178.6875)"/>
<path d="M0 0 C1.32 0.66 2.64 1.32 4 2 C4 3.98 4 5.96 4 8 C5.75098126 5.37352812 7.38731308 2.71224618 9 0 C11.02411204 1.01205602 13.0065935 2.00404118 14.9375 3.1875 C17.61037133 4.24044931 19.24066804 3.58091199 22 3 C24.1385485 5.1385485 24.42655063 6.13275314 25 9 C25.66 7.35 26.32 5.7 27 4 C29.475 4.495 29.475 4.495 32 5 C31.50269348 9.97306516 30.44697666 13.63799813 28 18 C26.906875 17.773125 25.81375 17.54625 24.6875 17.3125 C21.13896042 16.62615353 21.13896042 16.62615353 19.125 18.25 C17.8246432 20.11439755 17.8246432 20.11439755 17 23 C3.01092385 23.56039326 3.01092385 23.56039326 -2 20 C-2.61875 19.5875 -3.2375 19.175 -3.875 18.75 C-5.76680173 15.80719731 -5.33643518 13.42042438 -5 10 C-3.90577883 6.11411199 -2.88238185 2.88238185 0 0 Z " fill="#F7C2C7" transform="translate(249,211)"/>
<path d="M0 0 C9.13802826 -0.79461115 16.81791604 3.08676792 23.76953125 8.8203125 C30.99368801 15.87999634 40.74585562 27.32593609 41 38 C40.34 38.99 39.68 39.98 39 41 C37.68 41 36.36 41 35 41 C34.72027344 40.16597656 34.44054687 39.33195312 34.15234375 38.47265625 C31.44134481 30.86268172 28.43476951 24.97356131 23 19 C22.443125 18.36320312 21.88625 17.72640625 21.3125 17.0703125 C15.65969588 10.97261176 8.95605505 7.32860148 1 5 C0.34 4.67 -0.32 4.34 -1 4 C-0.67 2.68 -0.34 1.36 0 0 Z " fill="#452921" transform="translate(234,141)"/>
<path d="M0 0 C1.3271261 3.9813783 1.06915913 7.85045227 1 12 C3.29294488 12.85974801 3.29294488 12.85974801 6 13 C7.3743291 11.70896357 8.70896357 10.3743291 10 9 C11.32 9 12.64 9 14 9 C14.375 11.75 14.375 11.75 14 15 C10.79270473 18.04693051 8.16576152 19.24625289 3.8125 19.375 C0 19 0 19 -3 17 C-5.63434254 17.32126128 -7.62710097 17.81355048 -10 19 C-14.85505496 19.13594154 -18.7832119 18.62148257 -22.5625 15.4375 C-23.366875 14.633125 -24.17125 13.82875 -25 13 C-24.67 11.35 -24.34 9.7 -24 8 C-19.34074074 8.62962963 -19.34074074 8.62962963 -17.5625 10.5625 C-15.96161036 12.33952866 -15.96161036 12.33952866 -12.8125 12.1875 C-11.884375 12.125625 -10.95625 12.06375 -10 12 C-10.12375 10.14375 -10.12375 10.14375 -10.25 8.25 C-10.23900334 5.1489408 -10.12081946 4.18587609 -8.375 1.5 C-5.39901677 -0.37956836 -3.45669582 -0.31424507 0 0 Z " fill="#492E25" transform="translate(202,214)"/>
<path d="M0 0 C0.7658139 0.02601791 1.53162781 0.05203583 2.32064819 0.07884216 C4.45556641 0.20141602 4.45556641 0.20141602 7.8984375 0.74609375 C8.5584375 1.73609375 9.2184375 2.72609375 9.8984375 3.74609375 C4.80631491 5.70396964 -0.02752067 6.37613623 -5.4140625 6.87109375 C-6.31036377 6.95528564 -7.20666504 7.03947754 -8.13012695 7.1262207 C-15.68297496 7.76386171 -23.21148146 7.9281206 -30.7890625 7.93359375 C-31.8819458 7.93439941 -32.9748291 7.93520508 -34.10083008 7.93603516 C-41.83217126 7.88078937 -41.83217126 7.88078937 -44.1015625 6.74609375 C-44.1015625 5.75609375 -44.1015625 4.76609375 -44.1015625 3.74609375 C-45.0915625 3.08609375 -46.0815625 2.42609375 -47.1015625 1.74609375 C-42.16252969 1.42940957 -37.22287277 1.12710108 -32.28222656 0.83666992 C-30.61045092 0.73653586 -28.9388839 0.63283884 -27.26757812 0.52514648 C-18.16009705 -0.05915878 -9.12345384 -0.40086212 0 0 Z " fill="#402520" transform="translate(237.1015625,350.25390625)"/>
<path d="M0 0 C-0.33 1.65 -0.66 3.3 -1 5 C-1.54527344 5.14695313 -2.09054688 5.29390625 -2.65234375 5.4453125 C-8.90712505 7.30570899 -13.8411847 10.0192567 -19 14 C-19.60714844 14.46792969 -20.21429688 14.93585938 -20.83984375 15.41796875 C-25.74093854 19.74115667 -28.40484419 25.10346396 -31.16040039 30.93334961 C-33.54193343 35.80654082 -33.54193343 35.80654082 -36.23828125 36.9453125 C-37.11033203 36.97238281 -37.11033203 36.97238281 -38 37 C-39.39314171 33.40105058 -38.89249943 31.16894927 -37.4375 27.75 C-30.57271871 13.64556881 -17.18717844 -2.00517082 0 0 Z " fill="#432820" transform="translate(161,140)"/>
<path d="M0 0 C3.49198759 2.32799172 3.73975698 3.71736938 4.59838867 7.69050598 C6.07651922 16.19059902 6.12304083 24.66439427 6.0625 33.26953125 C6.05871338 34.50869797 6.05492676 35.74786469 6.05102539 37.02458191 C6.0368211 41.62193535 6.01342688 46.21921608 5.98962402 50.81652832 C5.96672506 55.34252136 5.95138415 59.86850303 5.9375 64.39453125 C5.92920166 65.5841597 5.92090332 66.77378815 5.91235352 67.99946594 C5.90905029 69.10799423 5.90574707 70.21652252 5.90234375 71.35864258 C5.89710693 72.32997635 5.89187012 73.30131012 5.88647461 74.30207825 C5.99868961 76.96885869 6.40259919 79.40255782 7 82 C9.64 82.33 12.28 82.66 15 83 C14.83757812 81.71609375 14.67515625 80.4321875 14.5078125 79.109375 C13.79606439 71.96171377 13.85044584 64.80825586 13.86962891 57.63378906 C13.87495761 55.26881404 13.86967306 52.90403153 13.86328125 50.5390625 C13.85966451 41.31058703 14.18555112 32.19826315 15 23 C15.33 23 15.66 23 16 23 C15.99476318 23.92748047 15.98952637 24.85496094 15.98413086 25.81054688 C15.96698673 29.28451166 15.95450035 32.75843082 15.94506836 36.23242188 C15.94007057 37.72982497 15.9332701 39.22722327 15.92456055 40.72460938 C15.91229377 42.88933505 15.90672603 45.05399565 15.90234375 47.21875 C15.89710693 48.51748047 15.89187012 49.81621094 15.88647461 51.15429688 C16.0053392 55.18086673 16.43973231 59.01415096 17 63 C17.33 63 17.66 63 18 63 C18 70.59 18 78.18 18 86 C16.35 85.67 14.7 85.34 13 85 C13 85.66 13 86.32 13 87 C9.7 87 6.4 87 3 87 C0.7402872 76.4297732 1.11154319 66.69750024 2 56 C2.33 56 2.66 56 3 56 C3.07469384 49.79275074 3.12885748 43.5857687 3.16479492 37.37817383 C3.17979183 35.27070553 3.2001961 33.16326796 3.22631836 31.0559082 C3.26310475 28.00985078 3.27981776 24.9642094 3.29296875 21.91796875 C3.30845261 20.99042282 3.32393646 20.06287689 3.33988953 19.10722351 C3.34159276 12.34143023 2.0552385 6.43477584 0 0 Z M4 24 C4 26.97 4 29.94 4 33 C4.33 33 4.66 33 5 33 C5 30.03 5 27.06 5 24 C4.67 24 4.34 24 4 24 Z M15 64 C16 68 16 68 16 68 Z M4 79 C4 81.31 4 83.62 4 86 C4.33 86 4.66 86 5 86 C5 83.69 5 81.38 5 79 C4.67 79 4.34 79 4 79 Z " fill="#494946" transform="translate(187,25)"/>
<path d="M0 0 C0.99 0 1.98 0 3 0 C3 3.63 3 7.26 3 11 C4.32 10.34 5.64 9.68 7 9 C7.99 8.67 8.98 8.34 10 8 C10.33 7.01 10.66 6.02 11 5 C11.66 5 12.32 5 13 5 C13.33 7.31 13.66 9.62 14 12 C14.763125 11.21625 15.52625 10.4325 16.3125 9.625 C19 7 19 7 22 5 C22.33 7.64 22.66 10.28 23 13 C26.465 11.02 26.465 11.02 30 9 C29.39976024 11.70107893 28.71960672 13.48991309 26.41772461 15.12158203 C21.21707389 17.81455556 16.89742352 18.70467465 11.0625 18.625 C10.27633301 18.62242187 9.49016602 18.61984375 8.68017578 18.6171875 C2.18166871 18.40169296 -2.29235574 16.62505401 -7 12 C-6.5875 11.319375 -6.175 10.63875 -5.75 9.9375 C-3.79034942 6.64808652 -1.8926147 3.32839137 0 0 Z " fill="#F6C3C6" transform="translate(117,215)"/>
<path d="M0 0 C4.95618861 -0.35261421 8.82917054 -0.5637327 13.375 1.625 C17.6481748 5.49120577 20.20485117 8.64621483 20.5 14.5 C20.282096 18.96327499 18.99097204 21.60484255 16 25 C12.05062318 28.20219742 8.99834992 28.29402058 4 28 C4 27.67 4 27.34 4 27 C5.65 27 7.3 27 9 27 C9 26.34 9 25.68 9 25 C7.35 25 5.7 25 4 25 C6.93720508 23.47700477 9.9168649 22.19899698 13 21 C12.67 20.01 12.34 19.02 12 18 C8.37 17.67 4.74 17.34 1 17 C1.99 16.67 2.98 16.34 4 16 C4 15.34 4 14.68 4 14 C2.68 13.67 1.36 13.34 0 13 C1.27875 12.87625 2.5575 12.7525 3.875 12.625 C7.34790936 12.30957601 7.34790936 12.30957601 10 10 C10 8.68 10 7.36 10 6 C7.98177083 5.609375 5.96354167 5.21875 3.9453125 4.828125 C2 4 2 4 0.7421875 1.921875 C0.37480469 0.97054687 0.37480469 0.97054687 0 0 Z " fill="#482C25" transform="translate(227,178)"/>
<path d="M0 0 C9.67826955 0.03825403 9.67826955 0.03825403 13.5625 3.875 C17.09796788 8.40765113 17.60702187 12.37706053 17 18 C15.54944594 21.66092216 14.06078142 24.50602995 11 27 C8.73828125 27.51171875 8.73828125 27.51171875 6.3125 27.6875 C5.10013672 27.78611328 5.10013672 27.78611328 3.86328125 27.88671875 C2.94095703 27.94279297 2.94095703 27.94279297 2 28 C2.33 27.01 2.66 26.02 3 25 C2.01 24.67 1.02 24.34 0 24 C2.64 23.34 5.28 22.68 8 22 C7.67 21.01 7.34 20.02 7 19 C4.69 18.67 2.38 18.34 0 18 C0.99 17.34 1.98 16.68 3 16 C1.35 15.67 -0.3 15.34 -2 15 C-2 14.67 -2 14.34 -2 14 C0.97 13.01 3.94 12.02 7 11 C7.16687448 8.58354218 7.16687448 8.58354218 7 6 C5.15404514 3.93553 5.15404514 3.93553 2.9375 3 C1 2 1 2 0 0 Z " fill="#432821" transform="translate(158,178)"/>
<path d="M0 0 C3.6348735 1.47105469 6.28303592 3.18240762 9 6 C8.67 6.66 8.34 7.32 8 8 C6.68 8 5.36 8 4 8 C3.34 9.98 2.68 11.96 2 14 C1.67 14 1.34 14 1 14 C0.34 12.02 -0.32 10.04 -1 8 C-2.98 8.33 -4.96 8.66 -7 9 C-7 8.34 -7 7.68 -7 7 C-9.89234315 6.17361624 -11.88742431 6 -15 6 C-15.66 9.3 -16.32 12.6 -17 16 C-20 13 -20 13 -20.1875 9.3125 C-20.0946875 7.6728125 -20.0946875 7.6728125 -20 6 C-21.32 5.67 -22.64 5.34 -24 5 C-21.24790221 -3.25629336 -7.11765805 -0.96208645 0 0 Z " fill="#F5C3C5" transform="translate(272,207)"/>
<path d="M0 0 C0.33 0 0.66 0 1 0 C1.13558695 3.04317386 1.23437239 6.08025562 1.3125 9.125 C1.3753418 10.40890625 1.3753418 10.40890625 1.43945312 11.71875 C1.52339991 16.08398261 1.42577704 19.0993533 -1.33203125 22.6171875 C-4 25 -4 25 -7 25 C-8.50143544 21.99712912 -8.26574018 18.916891 -8.3125 15.625 C-8.34150391 14.95210938 -8.37050781 14.27921875 -8.40039062 13.5859375 C-8.4460682 10.01605969 -8.26942485 8.3303972 -5.98046875 5.5234375 C-5.32691406 5.02070313 -4.67335938 4.51796875 -4 4 C-3.67 4.66 -3.34 5.32 -3 6 C-2.34 5.67 -1.68 5.34 -1 5 C-0.34444881 2.47266765 -0.34444881 2.47266765 0 0 Z " fill="#F3E6C6" transform="translate(270,345)"/>
<path d="M0 0 C1.8253125 0.0309375 1.8253125 0.0309375 3.6875 0.0625 C3.6875 0.7225 3.6875 1.3825 3.6875 2.0625 C2.77871094 2.20945312 2.77871094 2.20945312 1.8515625 2.359375 C-8.1729686 4.14836824 -16.91304002 8.26330719 -26.04760742 12.6003418 C-28.71999065 13.86817834 -31.37625021 15.0871007 -34.13671875 16.15234375 C-36.85422659 17.28911094 -38.27260287 18.95885609 -40.3125 21.0625 C-42.9375 22.875 -42.9375 22.875 -45.3125 24.0625 C-45.9725 23.7325 -46.6325 23.4025 -47.3125 23.0625 C-46.5625 20.625 -46.5625 20.625 -45.3125 18.0625 C-43.375 17.4375 -43.375 17.4375 -41.3125 17.0625 C-40.29145449 16.08399805 -39.2918879 15.08269573 -38.3125 14.0625 C-36.99394572 13.36705998 -35.65831452 12.7035971 -34.3125 12.0625 C-33.67570312 11.74410156 -33.03890625 11.42570312 -32.3828125 11.09765625 C-31.02551993 10.41900997 -29.66737893 9.74205906 -28.30859375 9.06640625 C-26.69412974 8.25443512 -25.09454412 7.41292353 -23.5 6.5625 C-16.08540665 3.0732796 -8.30320549 -0.1407323 0 0 Z " fill="#4D4D49" transform="translate(145.3125,112.9375)"/>
<path d="M0 0 C1.15049882 3.36712654 0.84587766 5.25268946 -0.375 8.5625 C-0.65085937 9.32691406 -0.92671875 10.09132812 -1.2109375 10.87890625 C-1.47132812 11.57886719 -1.73171875 12.27882812 -2 13 C-3.28774446 16.86323338 -3.23382793 20.57490537 -3.31640625 24.60546875 C-3.33718735 25.44467361 -3.35796844 26.28387848 -3.37937927 27.14851379 C-3.44474018 29.82809294 -3.50369714 32.50776969 -3.5625 35.1875 C-3.60569802 37.00456737 -3.64931273 38.82162488 -3.69335938 40.63867188 C-3.8004078 45.09234799 -3.90171319 49.54612226 -4 54 C-5.32 53.67 -6.64 53.34 -8 53 C-8.31727525 37.66828354 -8.50678383 22.99013812 -5 8 C-4.66156361 6.33436207 -4.3260256 4.66811157 -4 3 C-3.01 3 -2.02 3 -1 3 C-0.67 2.01 -0.34 1.02 0 0 Z M-3 7 C-2 9 -2 9 -2 9 Z M-5 16 C-5 18.31 -5 20.62 -5 23 C-4.67 23 -4.34 23 -4 23 C-4 20.69 -4 18.38 -4 16 C-4.33 16 -4.66 16 -5 16 Z M-6 24 C-6 25.65 -6 27.3 -6 29 C-5.67 29 -5.34 29 -5 29 C-5 27.35 -5 25.7 -5 24 C-5.33 24 -5.66 24 -6 24 Z M-7 29 C-7 35.6 -7 42.2 -7 49 C-6.67 49 -6.34 49 -6 49 C-6 42.4 -6 35.8 -6 29 C-6.33 29 -6.66 29 -7 29 Z " fill="#514945" transform="translate(70,176)"/>
<path d="M0 0 C4.875 0.875 4.875 0.875 6 2 C6.99 2 7.98 2 9 2 C9.99 2 10.98 2 12 2 C12.33 2.33 12.66 2.66 13 3 C14.83271522 3.04760299 16.66704066 3.03702948 18.5 3 C32.35141509 2.9009434 32.35141509 2.9009434 37 6 C37 5.34 37 4.68 37 4 C38.65 4 40.3 4 42 4 C42.495 4.99 42.495 4.99 43 6 C41 8 41 8 37.02734375 8.046875 C35.33005453 7.96025449 33.63340643 7.86043185 31.9375 7.75 C30.6076709 7.6737439 30.6076709 7.6737439 29.25097656 7.59594727 C20.79191535 7.07046013 12.39854226 6.1205309 4 5 C3.34 8.96 2.68 12.92 2 17 C1.34 17 0.68 17 0 17 C-1.02835363 13.91493912 -1.13368434 11.7305728 -1.125 8.5 C-1.12757813 7.5409375 -1.13015625 6.581875 -1.1328125 5.59375 C-1 3 -1 3 0 0 Z M1 1 C1 3.64 1 6.28 1 9 C1.33 9 1.66 9 2 9 C2 6.36 2 3.72 2 1 C1.67 1 1.34 1 1 1 Z M16 4 C16 4.33 16 4.66 16 5 C18.31 5 20.62 5 23 5 C23 4.67 23 4.34 23 4 C20.69 4 18.38 4 16 4 Z M0 9 C0 10.65 0 12.3 0 14 C0.33 14 0.66 14 1 14 C1 12.35 1 10.7 1 9 C0.67 9 0.34 9 0 9 Z " fill="#4D4845" transform="translate(141,352)"/>
<path d="M0 0 C0.99 0 1.98 0 3 0 C4.42093465 5.29621096 3.68049692 8.24427966 1 13 C-3.19335652 17.56583232 -7.59121285 19.87519238 -13.76953125 20.1953125 C-15.11732715 20.18216327 -16.46505695 20.1585249 -17.8125 20.125 C-18.85180664 20.11146484 -18.85180664 20.11146484 -19.91210938 20.09765625 C-21.60822395 20.07426157 -23.30415871 20.03839641 -25 20 C-25 19.67 -25 19.34 -25 19 C-21.37 19 -17.74 19 -14 19 C-13.67 17.68 -13.34 16.36 -13 15 C-9.67857143 12 -9.67857143 12 -7 12 C-7 12.66 -7 13.32 -7 14 C-5.04124409 13.78720402 -5.04124409 13.78720402 -3 13 C-0.56684368 9.11421304 0.42634867 4.54771913 0 0 Z " fill="#F8C5C5" transform="translate(280,215)"/>
<path d="M0 0 C3.69230769 0.69230769 3.69230769 0.69230769 5 2 C4.76597641 7.73357787 3.06046657 12.78630828 -1 17 C-2.32 17 -3.64 17 -5 17 C-5.52843782 10.79085562 -3.92081028 6.46625538 -1 1 C-0.67 0.67 -0.34 0.34 0 0 Z " fill="#482624" transform="translate(124,209)"/>
<path d="M0 0 C1.32 0.33 2.64 0.66 4 1 C4.65311483 6.22491863 3.14321893 8.91426016 0.2890625 13.0703125 C-0.99010368 14.98518551 -2.01203033 16.92249369 -3 19 C-3.99 19 -4.98 19 -6 19 C-6.39647566 11.46696239 -4.98313725 5.93230625 0 0 Z " fill="#492925" transform="translate(115,207)"/>
<path d="M0 0 C1.91015625 0.23046875 1.91015625 0.23046875 3.91015625 2.23046875 C4.34765625 4.66796875 4.34765625 4.66796875 3.91015625 7.23046875 C1.33364751 9.36529028 -0.45465322 10.15660939 -3.77734375 10.54296875 C-6.08984375 10.23046875 -6.08984375 10.23046875 -8.08984375 8.23046875 C-7.38079808 0.14734806 -7.38079808 0.14734806 0 0 Z " fill="#F1EDEA" transform="translate(162.08984375,181.76953125)"/>
<path d="M0 0 C1.32 0.66 2.64 1.32 4 2 C3.58411954 8.19518473 2.39748106 13.26689311 0 19 C-1.32 18.67 -2.64 18.34 -4 18 C-3.91239411 15.93673023 -3.80420727 13.8743284 -3.6875 11.8125 C-3.62949219 10.66394531 -3.57148438 9.51539063 -3.51171875 8.33203125 C-2.97745494 4.85319896 -2.0052674 2.85468362 0 0 Z " fill="#482624" transform="translate(258,211)"/>
<path d="M0 0 C1.32 0.66 2.64 1.32 4 2 C3.63453804 7.84739138 1.98464618 12.5662174 -2 17 C-2.99 17 -3.98 17 -5 17 C-5.34937311 11.41003031 -4.52472638 7.03787145 -2 2 C-1.34 1.34 -0.68 0.68 0 0 Z " fill="#472624" transform="translate(249,211)"/>
<path d="M0 0 C2.75485711 2.24123968 5.39723687 4.58453248 8 7 C7.34 7.99 6.68 8.98 6 10 C5.67 9.34 5.34 8.68 5 8 C4.01 7.67 3.02 7.34 2 7 C1.566875 6.154375 1.13375 5.30875 0.6875 4.4375 C0.130625 3.633125 -0.42625 2.82875 -1 2 C-4.08391002 1.66638081 -4.08391002 1.66638081 -7 2 C-7.33 1.67 -7.66 1.34 -8 1 C-10.92640662 0.70735934 -13.14790843 0.51292554 -16 1 C-18.77069744 3.18731921 -18.77069744 3.18731921 -21 6 C-22.64864545 7.35555293 -24.31003995 8.69631653 -26 10 C-25.35492261 8.65608877 -24.6802367 7.32646156 -24 6 C-23.72027344 5.42121094 -23.44054687 4.84242187 -23.15234375 4.24609375 C-21.67265833 1.37658235 -20.54011499 -0.61874236 -17.875 -2.5 C-12.07277635 -3.50908237 -5.14971322 -2.98141292 0 0 Z " fill="#494F4C" transform="translate(233,15)"/>
<path d="M0 0 C1.65 0.33 3.3 0.66 5 1 C4.56680729 6.41490891 3.43406135 9.75792422 0 14 C-0.99 14.33 -1.98 14.66 -3 15 C-3.55353075 4.44191344 -3.55353075 4.44191344 0 0 Z " fill="#482625" transform="translate(267,214)"/>
<path d="M0 0 C1.23556641 0.01740234 1.23556641 0.01740234 2.49609375 0.03515625 C3.32238281 0.04417969 4.14867187 0.05320313 5 0.0625 C5.63808594 0.07410156 6.27617187 0.08570313 6.93359375 0.09765625 C7.62109375 2.41015625 7.62109375 2.41015625 7.93359375 5.09765625 C6.93359375 6.91015625 6.93359375 6.91015625 4.93359375 8.09765625 C1.37109375 8.41015625 1.37109375 8.41015625 -2.06640625 8.09765625 C-2.72640625 7.43765625 -3.38640625 6.77765625 -4.06640625 6.09765625 C-3.34205084 0.15794191 -3.34205084 0.15794191 0 0 Z " fill="#F2EEEA" transform="translate(230.06640625,182.90234375)"/>
<path d="M0 0 C1.2065625 0.0309375 1.2065625 0.0309375 2.4375 0.0625 C2.97654065 5.45290653 1.55686806 9.69121165 -1.5625 14.0625 C-2.5525 14.3925 -3.5425 14.7225 -4.5625 15.0625 C-6.13780966 10.17904007 -5.00490704 5.84417814 -3.5625 1.0625 C-2.5625 0.0625 -2.5625 0.0625 0 0 Z " fill="#4C2C28" transform="translate(144.5625,212.9375)"/>
<path d="M0 0 C1.32 0.33 2.64 0.66 4 1 C4 1.66 4 2.32 4 3 C2.02365903 3.36960936 0.04368786 3.71982031 -1.9375 4.0625 C-3.03964844 4.25972656 -4.14179688 4.45695312 -5.27734375 4.66015625 C-8.72828467 4.97519493 -11.6941605 4.70967182 -15.11108398 4.26000977 C-22.05692172 3.63486676 -29.09283978 3.90038637 -36.0625 3.9375 C-37.70768093 3.9425242 -39.35286335 3.94708548 -40.99804688 3.95117188 C-44.99873498 3.96210658 -48.99935088 3.9793207 -53 4 C-53 3.67 -53 3.34 -53 3 C-51.72358643 2.97494385 -50.44717285 2.9498877 -49.13208008 2.92407227 C-44.38897956 2.82978306 -39.64601814 2.72961503 -34.90307617 2.62768555 C-32.85167702 2.58441802 -30.80024375 2.54273725 -28.7487793 2.50268555 C-25.79725878 2.44478456 -22.84590868 2.3811474 -19.89453125 2.31640625 C-18.97976517 2.29969376 -18.06499908 2.28298126 -17.12251282 2.26576233 C-12.95335289 2.16912851 -9.07667055 1.95930197 -5 1 C-3.3337447 0.9629721 -1.66598681 0.95240038 0 1 C0 0.67 0 0.34 0 0 Z " fill="#534E4B" transform="translate(241,355)"/>
<path d="M0 0 C0.99 0.33 1.98 0.66 3 1 C3.49842868 7.10575128 2.42265865 10.11048764 -1 15 C-1.99 15.33 -2.98 15.66 -4 16 C-4.34963286 10.17278563 -4.19639756 6.11423609 -1 1 C-0.67 0.67 -0.34 0.34 0 0 Z " fill="#472422" transform="translate(135,211)"/>
<path d="M0 0 C1.65 0.33 3.3 0.66 5 1 C4.50269348 5.97306516 3.44697666 9.63799813 1 14 C-0.32 14 -1.64 14 -3 14 C-2.58846263 9.02906176 -2.20399168 4.55491614 0 0 Z " fill="#472622" transform="translate(276,215)"/>
<path d="M0 0 C0.33 0.99 0.66 1.98 1 3 C-0.0828125 4.06734375 -0.0828125 4.06734375 -1.1875 5.15625 C-3.87446468 7.87306985 -6.44587725 10.65853844 -9 13.5 C-12.24032072 17.1048568 -15.54773413 20.59705221 -19 24 C-18.814375 23.21625 -18.62875 22.4325 -18.4375 21.625 C-17.74037734 19.02910225 -17.74037734 19.02910225 -19 17 C-18.360625 16.38125 -17.72125 15.7625 -17.0625 15.125 C-14.96116416 13.17402388 -14.96116416 13.17402388 -14 11 C-13.25363281 10.72414062 -12.50726563 10.44828125 -11.73828125 10.1640625 C-8.44172995 8.7626755 -6.6553381 6.95333832 -4.1875 4.375 C-3.39730469 3.55773437 -2.60710937 2.74046875 -1.79296875 1.8984375 C-1.20128906 1.27195313 -0.60960938 0.64546875 0 0 Z " fill="#493B39" transform="translate(97,137)"/>
<path d="M0 0 C0.99 0.28875 1.98 0.5775 3 0.875 C5.67329394 1.64728492 8.35066592 2.31571145 11.0625 2.9375 C16.11762275 4.19391886 20.0328175 5.54922624 23 10 C21.35 10.33 19.7 10.66 18 11 C17.67 10.34 17.34 9.68 17 9 C14.00596448 7.45761806 11.30903094 6.87526285 8 6.5625 C4.37789008 6.19205694 1.99412167 5.15202495 -1 3 C-0.67 2.01 -0.34 1.02 0 0 Z " fill="#4C4A46" transform="translate(257,115)"/>
<path d="M0 0 C-0.33 1.65 -0.66 3.3 -1 5 C-5.95 6.485 -5.95 6.485 -11 8 C-11 7.01 -11 6.02 -11 5 C-12.32 4.34 -13.64 3.68 -15 3 C-9.8531808 -0.16727335 -5.841744 -0.35050464 0 0 Z " fill="#482E24" transform="translate(161,140)"/>
<path d="M0 0 C4.19360449 0.67097672 7.40334352 2.8558394 11 5 C11 5.99 11 6.98 11 8 C3.71149675 8.48590022 3.71149675 8.48590022 0.4375 6.25 C-1 4 -1 4 -0.75 1.75 C-0.5025 1.1725 -0.255 0.595 0 0 Z " fill="#472C23" transform="translate(191,237)"/>
<path d="M0 0 C1.8871875 0.0309375 1.8871875 0.0309375 3.8125 0.0625 C4.1425 1.3825 4.4725 2.7025 4.8125 4.0625 C1.41785554 6.15151197 -1.23591529 6.40611606 -5.1875 6.0625 C-5.8475 5.4025 -6.5075 4.7425 -7.1875 4.0625 C-7.1875 3.0725 -7.1875 2.0825 -7.1875 1.0625 C-4.43671116 0.14557039 -2.82801087 -0.04636083 0 0 Z " fill="#F1EAE7" transform="translate(235.1875,194.9375)"/>
<path d="M0 0 C0.66 0.66 1.32 1.32 2 2 C-1.63410571 5.63410571 -6.06677252 7.17884064 -11.125 7.4375 C-15.40685611 6.95406463 -16.99761689 6.00238311 -20 3 C-19.67 2.34 -19.34 1.68 -19 1 C-16.13275314 1.57344937 -15.1385485 1.8614515 -13 4 C-10.38087164 3.87480105 -10.38087164 3.87480105 -7.5 3.25 C-6.5203125 3.06953125 -5.540625 2.8890625 -4.53125 2.703125 C-1.85539904 2.18343721 -1.85539904 2.18343721 0 0 Z " fill="#585C59" transform="translate(140,369)"/>
<path d="M0 0 C3.10652645 0.3358407 4.60414303 0.59049279 6.8125 2.875 C8 5 8 5 8 8 C6.3125 8.75 6.3125 8.75 4 9 C1.25 7.0625 1.25 7.0625 -1 5 C-0.67 3.35 -0.34 1.7 0 0 Z " fill="#44291F" transform="translate(178,222)"/>
<path d="M0 0 C10.8424337 -0.21684867 10.8424337 -0.21684867 15 1 C16.375 3.0625 16.375 3.0625 17 5 C12.46613369 6.63604138 9.05268776 4.9515079 4.65625 3.49609375 C1.61295984 2.92771456 0.53984514 3.32873397 -2 5 C-1.34 3.35 -0.68 1.7 0 0 Z " fill="#4B4A48" transform="translate(165,14)"/>
<path d="M0 0 C0.99 0 1.98 0 3 0 C4.41703948 5.28169261 3.49499401 8.19482636 1 13 C-1 15 -1 15 -3.625 15.125 C-4.40875 15.08375 -5.1925 15.0425 -6 15 C-5.38125 14.46375 -4.7625 13.9275 -4.125 13.375 C-1.04362679 9.9311123 -0.07437263 6.71057048 0.125 2.125 C0.08375 1.42375 0.0425 0.7225 0 0 Z " fill="#ECC0BE" transform="translate(280,215)"/>
<path d="M0 0 C0 0.99 0 1.98 0 3 C-3.21451269 4.60725635 -6.43612536 4.05748185 -10 4 C-10 2.68 -10 1.36 -10 0 C-6.30458414 -0.95024979 -3.69541586 -0.95024979 0 0 Z " fill="#EFE9E4" transform="translate(166,197)"/>
<path d="M0 0 C2.6875 0.3125 2.6875 0.3125 5 1 C4.67 1.66 4.34 2.32 4 3 C3.34 3 2.68 3 2 3 C1.401875 3.598125 0.80375 4.19625 0.1875 4.8125 C-2.07004114 7.07004114 -4.14863156 8.57431578 -7 10 C-7.66 9.67 -8.32 9.34 -9 9 C-8.25 6.5625 -8.25 6.5625 -7 4 C-5.0625 3.375 -5.0625 3.375 -3 3 C-2.525625 2.46375 -2.05125 1.9275 -1.5625 1.375 C-0.7890625 0.694375 -0.7890625 0.694375 0 0 Z " fill="#4E4A46" transform="translate(107,127)"/>
<path d="M0 0 C0.66 0.33 1.32 0.66 2 1 C2.05847045 4.85410207 2.09375405 8.70808865 2.125 12.5625 C2.14175781 13.64853516 2.15851563 14.73457031 2.17578125 15.85351562 C2.24176209 26.70736302 2.24176209 26.70736302 0 32 C-1.485 32.495 -1.485 32.495 -3 33 C-2.7834375 32.46117187 -2.566875 31.92234375 -2.34375 31.3671875 C1.09849246 21.19982321 0.27324062 10.58912492 0 0 Z " fill="#454542" transform="translate(300,272)"/>
<path d="M0 0 C0.33 0 0.66 0 1 0 C1.948434 4.12568792 2.26017021 8.15228266 2.5 12.375 C2.7815534 17.31223991 3.24323422 22.11886072 4 27 C3.34 26.67 2.68 26.34 2 26 C-2.78125 5.5625 -2.78125 5.5625 0 0 Z " fill="#433834" transform="translate(114,340)"/>
<path d="M0 0 C0.66 0.66 1.32 1.32 2 2 C1.525625 3.19625 1.05125 4.3925 0.5625 5.625 C-0.73482773 9.06414238 -1.54236951 12.33895604 -2 16 C-3.20628008 13.66785852 -4.1654738 11.50357861 -5 9 C-2.66666667 2.66666667 -2.66666667 2.66666667 0 0 Z " fill="#EABDBD" transform="translate(246,211)"/>
<path d="M0 0 C0.99 0 1.98 0 3 0 C2.67 4.62 2.34 9.24 2 14 C1.67 12.68 1.34 11.36 1 10 C0.01 10.33 -0.98 10.66 -2 11 C-1.34 7.37 -0.68 3.74 0 0 Z " fill="#E9BBBE" transform="translate(262,214)"/>
<path d="M0 0 C0.33 0 0.66 0 1 0 C1.24954005 1.43410368 1.47392642 2.87260072 1.6875 4.3125 C1.81511719 5.11300781 1.94273437 5.91351563 2.07421875 6.73828125 C2 9 2 9 0.65625 10.71875 C-1.13827136 12.10696464 -2.93285193 13.07334742 -5 14 C-4.28269264 10.76834156 -3.18684926 7.81292078 -1.9375 4.75 C-1.57527344 3.85796875 -1.21304687 2.9659375 -0.83984375 2.046875 C-0.56269531 1.37140625 -0.28554688 0.6959375 0 0 Z " fill="#F2C3C7" transform="translate(272,216)"/>
<path d="M0 0 C0.66 0.66 1.32 1.32 2 2 C1.38125 2.78375 0.7625 3.5675 0.125 4.375 C-2.6882496 8.52504196 -3.26744459 13.12272322 -4 18 C-4.33 18 -4.66 18 -5 18 C-6.2656032 12.09385171 -6.02747098 8.95953224 -3.10546875 3.6640625 C-2 2 -2 2 0 0 Z " fill="#EFC9C2" transform="translate(113,206)"/>
<path d="M0 0 C2.3125 0.8125 2.3125 0.8125 4 2 C0.86665115 4.53078176 -2.24530187 6.51376532 -6 8 C-8.375 7.1875 -8.375 7.1875 -10 6 C-8.33333333 5 -6.66666667 4 -5 3 C-4.154375 2.401875 -3.30875 1.80375 -2.4375 1.1875 C-1.633125 0.795625 -0.82875 0.40375 0 0 Z " fill="#5A5E5C" transform="translate(120,120)"/>
<path d="M0 0 C6.04433574 1.35997554 9.63494136 4.85651794 14 9 C13.01 10.485 13.01 10.485 12 12 C11.67 11.34 11.34 10.68 11 10 C10.01 9.67 9.02 9.34 8 9 C7.566875 8.154375 7.13375 7.30875 6.6875 6.4375 C6.130625 5.633125 5.57375 4.82875 5 4 C1.87364791 3.58253392 1.87364791 3.58253392 -1 4 C-0.67 2.68 -0.34 1.36 0 0 Z " fill="#524F4C" transform="translate(227,13)"/>
<path d="M0 0 C0.22226864 1.76913824 0.42733873 3.54044371 0.625 5.3125 C0.74101562 6.29863281 0.85703125 7.28476563 0.9765625 8.30078125 C1 11 1 11 -1 14 C-1.99 13.67 -2.98 13.34 -4 13 C-3.690625 12.29875 -3.38125 11.5975 -3.0625 10.875 C-1.96697322 7.91063343 -1.43577008 5.12301892 -1 2 C-2.32 1.67 -3.64 1.34 -5 1 C-2 0 -2 0 0 0 Z " fill="#E0B7B2" transform="translate(148,211)"/>
<path d="M0 0 C1.258125 0.226875 2.51625 0.45375 3.8125 0.6875 C2.3275 3.1625 2.3275 3.1625 0.8125 5.6875 C-4.9375 4.9375 -4.9375 4.9375 -7.1875 2.6875 C-5.15110924 -0.49436057 -3.4972064 -0.45804119 0 0 Z " fill="#543932" transform="translate(159.1875,200.3125)"/>
<path d="M0 0 C0.33 0.99 0.66 1.98 1 3 C-2.63423209 5.32590854 -5.77088331 5.16265833 -10 5 C-10 4.67 -10 4.34 -10 4 C-8.35 4 -6.7 4 -5 4 C-5 3.34 -5 2.68 -5 2 C-6.65 2 -8.3 2 -10 2 C-6.5980513 -0.09350689 -3.94727588 -0.17942163 0 0 Z " fill="#3C2018" transform="translate(241,201)"/>
<path d="M0 0 C1.41493551 -0.10884119 2.83232943 -0.18597617 4.25 -0.25 C5.03890625 -0.29640625 5.8278125 -0.3428125 6.640625 -0.390625 C9 0 9 0 13 4 C9.04 4 5.08 4 1 4 C1.99 3.67 2.98 3.34 4 3 C4 2.34 4 1.68 4 1 C2.68 0.67 1.36 0.34 0 0 Z " fill="#3A1D16" transform="translate(227,191)"/>
<path d="M0 0 C4.29 0.33 8.58 0.66 13 1 C13 1.33 13 1.66 13 2 C11.8553125 2.185625 11.8553125 2.185625 10.6875 2.375 C7.79732864 2.88102792 7.79732864 2.88102792 5 5 C4.01 5 3.02 5 2 5 C1.01 5.33 0.02 5.66 -1 6 C-0.67 4.02 -0.34 2.04 0 0 Z " fill="#5C5552" transform="translate(239,113)"/>
<path d="M0 0 C1.150926 3.45277801 0.7304392 4.50057562 0 8 C-0.26496515 10.9332863 -0.41211538 13.8713713 -0.5625 16.8125 C-0.60568359 17.60076172 -0.64886719 18.38902344 -0.69335938 19.20117188 C-0.79878321 21.13394215 -0.89983094 23.06695026 -1 25 C-3 23 -3 23 -3.046875 19.296875 C-2.95893469 17.78057081 -2.85948026 16.26490131 -2.75 14.75 C-2.71003906 13.99847656 -2.67007813 13.24695312 -2.62890625 12.47265625 C-2.3410887 8.01537369 -1.63323612 4.20357493 0 0 Z " fill="#443C3A" transform="translate(205,23)"/>
<path d="M0 0 C2.97 0.495 2.97 0.495 6 1 C6.33 2.32 6.66 3.64 7 5 C5.02 5 3.04 5 1 5 C0.67 3.35 0.34 1.7 0 0 Z " fill="#3D221A" transform="translate(195,240)"/>
<path d="M0 0 C0.66 0.66 1.32 1.32 2 2 C-0.6465335 4.6465335 -3.56221264 5.59941997 -7 7 C-7.66 6.34 -8.32 5.68 -9 5 C-8.67 4.34 -8.34 3.68 -8 3 C-5.67793475 2.29508733 -3.34406932 1.62787571 -1 1 C-0.67 0.67 -0.34 0.34 0 0 Z " fill="#4F504D" transform="translate(140,369)"/>
<path d="M0 0 C1.58246707 -0.08153933 3.16616273 -0.13943557 4.75 -0.1875 C6.07257813 -0.23970703 6.07257813 -0.23970703 7.421875 -0.29296875 C10.44671583 0.05076316 11.75583602 1.00227459 14 3 C9.25 4.125 9.25 4.125 7 3 C7 2.34 7 1.68 7 1 C6.01 1.33 5.02 1.66 4 2 C1.8125 1.0625 1.8125 1.0625 0 0 Z " fill="#4C3128" transform="translate(227,178)"/>
<path d="M0 0 C1.56454159 4.02014661 0.46223974 7.69925681 -0.4375 11.75 C-0.58509766 12.44738281 -0.73269531 13.14476562 -0.88476562 13.86328125 C-1.24868033 15.5772021 -1.62329068 17.28884581 -2 19 C-2.33 19 -2.66 19 -3 19 C-3.19946435 12.71687298 -2.84752843 7.04155282 -1 1 C-0.67 0.67 -0.34 0.34 0 0 Z " fill="#424340" transform="translate(149,41)"/>
<path d="M0 0 C2.97 0 5.94 0 9 0 C8.67 0.99 8.34 1.98 8 3 C6.63875 2.938125 6.63875 2.938125 5.25 2.875 C2.1217954 2.99531556 0.61385994 3.3914708 -2 5 C-1.34 3.35 -0.68 1.7 0 0 Z " fill="#5B5553" transform="translate(165,14)"/>
<path d="M0 0 C1.37562854 1.28965176 2.70766393 2.62689293 4 4 C4 4.66 4 5.32 4 6 C1.36 6.33 -1.28 6.66 -4 7 C-4 6.01 -4 5.02 -4 4 C-3.01 3.67 -2.02 3.34 -1 3 C-0.67 2.01 -0.34 1.02 0 0 Z " fill="#91897B" transform="translate(154,113)"/>
<path d="M0 0 C1 2 1 2 0.00390625 5.0390625 C-0.47175781 6.22242188 -0.94742188 7.40578125 -1.4375 8.625 C-1.91058594 9.81351563 -2.38367188 11.00203125 -2.87109375 12.2265625 C-3.24363281 13.14179687 -3.61617187 14.05703125 -4 15 C-4.66 14.34 -5.32 13.68 -6 13 C-4.75696561 7.82069003 -3.14512215 4.29833361 0 0 Z " fill="#444341" transform="translate(155,26)"/>
<path d="M0 0 C1.32 0 2.64 0 4 0 C4.36923077 5.41538462 4.36923077 5.41538462 2.5 8.375 C2.005 8.91125 1.51 9.4475 1 10 C-0.0326802 7.21176345 -0.04509293 6.1322726 0.9375 3.25 C1.288125 2.5075 1.63875 1.765 2 1 C1.34 0.67 0.68 0.34 0 0 Z " fill="#411F1B" transform="translate(143,213)"/>
<path d="M0 0 C1.65 0.33 3.3 0.66 5 1 C3.55609075 4.80666984 1.65047197 6.26602582 -2 8 C-2.66 7.67 -3.32 7.34 -4 7 C-2.35 5.68 -0.7 4.36 1 3 C0.67 2.01 0.34 1.02 0 0 Z " fill="#3B2118" transform="translate(146,144)"/>
<path d="M0 0 C2.64 0 5.28 0 8 0 C8 0.66 8 1.32 8 2 C4.7 2.66 1.4 3.32 -2 4 C-1.34 2.68 -0.68 1.36 0 0 Z " fill="#447270" transform="translate(141,113)"/>
<path d="M0 0 C-0.99 1.32 -1.98 2.64 -3 4 C-4.32 3.67 -5.64 3.34 -7 3 C-6.67 2.01 -6.34 1.02 -6 0 C-3.50907189 -1.24546405 -2.58919267 -0.7767578 0 0 Z " fill="#4B4846" transform="translate(272,374)"/>
<path d="M0 0 C0.33 0 0.66 0 1 0 C1.66 5.61 2.32 11.22 3 17 C-0.566745 13.433255 -0.46851722 12.25764368 -0.75 7.375 C-0.82734375 6.20710938 -0.9046875 5.03921875 -0.984375 3.8359375 C-0.98953125 2.90007812 -0.9946875 1.96421875 -1 1 C-0.67 0.67 -0.34 0.34 0 0 Z " fill="#413A37" transform="translate(111,323)"/>
<path d="M0 0 C0.66 0 1.32 0 2 0 C2.33 0.66 2.66 1.32 3 2 C5.52733235 2.65555119 5.52733235 2.65555119 8 3 C7.01 4.485 7.01 4.485 6 6 C3.5625 5.25 3.5625 5.25 1 4 C0.1875 1.875 0.1875 1.875 0 0 Z " fill="#59534F" transform="translate(255,372)"/>
<path d="M0 0 C1.2065625 0.0309375 1.2065625 0.0309375 2.4375 0.0625 C2.4375 0.7225 2.4375 1.3825 2.4375 2.0625 C-0.32174185 3.86661967 -1.45222103 4.0752245 -4.8125 3.6875 C-5.72 3.48125 -6.6275 3.275 -7.5625 3.0625 C-6.923125 2.753125 -6.28375 2.44375 -5.625 2.125 C-1.57454819 0.03840361 -1.57454819 0.03840361 0 0 Z " fill="#E7D9C1" transform="translate(292.5625,268.9375)"/>
<path d="M0 0 C0.45375 0.66 0.9075 1.32 1.375 2 C1.91125 2.66 2.4475 3.32 3 4 C3.66 4 4.32 4 5 4 C5.33 5.32 5.66 6.64 6 8 C5.01 8.33 4.02 8.66 3 9 C0.86928411 6.40608501 -0.53582673 4.36525621 -1 1 C-0.67 0.67 -0.34 0.34 0 0 Z M3 5 C4 7 4 7 4 7 Z " fill="#4B413E" transform="translate(150,104)"/>
<path d="M0 0 C2.64 0 5.28 0 8 0 C7.67 0.99 7.34 1.98 7 3 C4.125 3.625 4.125 3.625 1 4 C0.34 3.34 -0.32 2.68 -1 2 C-0.67 1.34 -0.34 0.68 0 0 Z " fill="#46312D" transform="translate(245,354)"/>
<path d="M0 0 C2.45823172 3.68734758 3.01242616 6.69699971 4 11 C0.55783328 8.3401439 0.00495326 5.09711714 -1 1 C-0.67 0.67 -0.34 0.34 0 0 Z " fill="#4A3F3D" transform="translate(64,230)"/>
<path d="M0 0 C0.33 0 0.66 0 1 0 C1.33 2.97 1.66 5.94 2 9 C1.01 9.33 0.02 9.66 -1 10 C-2.46726798 6.18510326 -1.43336419 3.70988378 0 0 Z " fill="#D9ACAE" transform="translate(272,216)"/>
<path d="M0 0 C0.33 0.99 0.66 1.98 1 3 C1.66 3 2.32 3 3 3 C3 4.98 3 6.96 3 9 C2.67 9 2.34 9 2 9 C2 7.35 2 5.7 2 4 C1.01 4.99 0.02 5.98 -1 7 C-1.66 6.67 -2.32 6.34 -3 6 C-2.01 4.02 -1.02 2.04 0 0 Z " fill="#DDB0B3" transform="translate(128,216)"/>
<path d="M0 0 C2.875 -0.125 2.875 -0.125 6 0 C6.66 0.66 7.32 1.32 8 2 C7.67 2.66 7.34 3.32 7 4 C4.03 3.505 4.03 3.505 1 3 C0.67 2.01 0.34 1.02 0 0 Z " fill="#3E211A" transform="translate(158,178)"/>
<path d="M0 0 C-1.39332574 3.36720387 -2.9789286 4.9859524 -6 7 C-6.66 6.67 -7.32 6.34 -8 6 C-7.0479279 4.99403703 -6.08812654 3.99538437 -5.125 3 C-4.59132812 2.443125 -4.05765625 1.88625 -3.5078125 1.3125 C-2 0 -2 0 0 0 Z " fill="#EBDFC2" transform="translate(146,151)"/>
<path d="M0 0 C0.66 0.33 1.32 0.66 2 1 C0.50902342 4.7952131 -1.75700849 6.61042731 -5 9 C-3.50163895 5.88801935 -1.80066242 2.9465385 0 0 Z " fill="#4A433F" transform="translate(212,16)"/>
<path d="M0 0 C0.66 0 1.32 0 2 0 C2 0.66 2 1.32 2 2 C3.32 2.66 4.64 3.32 6 4 C5.67 4.99 5.34 5.98 5 7 C3.29115995 5.37660195 1.62553283 3.70680947 0 2 C0 1.34 0 0.68 0 0 Z " fill="#4B4643" transform="translate(100,305)"/>
<path d="M0 0 C0.99 0 1.98 0 3 0 C2.67 1.32 2.34 2.64 2 4 C0.68 4.33 -0.64 4.66 -2 5 C-1.125 1.125 -1.125 1.125 0 0 Z " fill="#40201B" transform="translate(246,223)"/>
<path d="M0 0 C0.33 0.66 0.66 1.32 1 2 C1.99 1.67 2.98 1.34 4 1 C4.33 2.98 4.66 4.96 5 7 C3.0625 6.3125 3.0625 6.3125 1 5 C0.25 2.375 0.25 2.375 0 0 Z " fill="#4E2E2A" transform="translate(132,215)"/>
<path d="M0 0 C2.31 0 4.62 0 7 0 C4 2 4 2 2 3 C1.67 3.66 1.34 4.32 1 5 C0.34 4.67 -0.32 4.34 -1 4 C-0.67 2.68 -0.34 1.36 0 0 Z " fill="#50382A" transform="translate(234,141)"/>
<path d="M0 0 C0 3 0 3 -1.3125 4.60546875 C-1.869375 5.12753906 -2.42625 5.64960938 -3 6.1875 C-3.556875 6.71730469 -4.11375 7.24710937 -4.6875 7.79296875 C-5.120625 8.19128906 -5.55375 8.58960938 -6 9 C-6.66 8.67 -7.32 8.34 -8 8 C-5.36 5.36 -2.72 2.72 0 0 Z " fill="#453B39" transform="translate(310,255)"/>
<path d="M0 0 C0.66 0.33 1.32 0.66 2 1 C2 2.65 2 4.3 2 6 C0.35 6 -1.3 6 -3 6 C-2.01 4.02 -1.02 2.04 0 0 Z " fill="#E5B5BA" transform="translate(250,222)"/>
<path d="M0 0 C2.31 0 4.62 0 7 0 C7 0.66 7 1.32 7 2 C7.66 2.33 8.32 2.66 9 3 C5.625 3.1875 5.625 3.1875 2 3 C1.34 2.01 0.68 1.02 0 0 Z " fill="#361913" transform="translate(227,179)"/>
<path d="M0 0 C1.98 1.65 3.96 3.3 6 5 C5.67 5.66 5.34 6.32 5 7 C3.29115995 5.37660195 1.62553283 3.70680947 0 2 C0 1.34 0 0.68 0 0 Z " fill="#473734" transform="translate(303,142)"/>
<path d="M0 0 C1.32 0.99 2.64 1.98 4 3 C3.67 3.99 3.34 4.98 3 6 C0 2.25 0 2.25 0 0 Z " fill="#463C3B" transform="translate(315,158)"/>
<path d="M0 0 C0.66 0.66 1.32 1.32 2 2 C1.01 2.99 0.02 3.98 -1 5 C-1 2 -1 2 0 0 Z " fill="#3F413E" transform="translate(321,239)"/>
<path d="M0 0 C0.33 0.99 0.66 1.98 1 3 C0.34 3.99 -0.32 4.98 -1 6 C-1.33 5.34 -1.66 4.68 -2 4 C-1.0625 1.875 -1.0625 1.875 0 0 Z " fill="#3A4442" transform="translate(69,173)"/>
<path d="M0 0 C0.66 1.32 1.32 2.64 2 4 C1.01 3.67 0.02 3.34 -1 3 C-0.67 2.01 -0.34 1.02 0 0 Z " fill="#444544" transform="translate(96,301)"/>
<path d="M0 0 C0.66 0.99 1.32 1.98 2 3 C1.67 3.66 1.34 4.32 1 5 C0.34 3.68 -0.32 2.36 -1 1 C-0.67 0.67 -0.34 0.34 0 0 Z " fill="#473D39" transform="translate(68,241)"/>
<path d="M0 0 C0.66 0.33 1.32 0.66 2 1 C1.34 2.32 0.68 3.64 0 5 C-0.33 4.01 -0.66 3.02 -1 2 C-0.67 1.34 -0.34 0.68 0 0 Z " fill="#3A3933" transform="translate(157,20)"/>
<path d="M0 0 C0.66 0 1.32 0 2 0 C1.34 1.32 0.68 2.64 0 4 C-0.33 3.34 -0.66 2.68 -1 2 C-0.67 1.34 -0.34 0.68 0 0 Z " fill="#3F3C39" transform="translate(75,159)"/>
<path d="M0 0 C0.99 0.99 1.98 1.98 3 3 C2.01 3.495 2.01 3.495 1 4 C0.67 2.68 0.34 1.36 0 0 Z " fill="#4C5956" transform="translate(86,265)"/>
<path d="M0 0 C0.66 0.33 1.32 0.66 2 1 C1.67 1.66 1.34 2.32 1 3 C0.34 3 -0.32 3 -1 3 C-0.67 2.01 -0.34 1.02 0 0 Z " fill="#454D4D" transform="translate(314,250)"/>
<path d="M0 0 C1.485 0.99 1.485 0.99 3 2 C2.67 2.66 2.34 3.32 2 4 C1.34 2.68 0.68 1.36 0 0 Z " fill="#494240" transform="translate(73,251)"/>
<path d="M0 0 C0.66 0.99 1.32 1.98 2 3 C1.01 3.495 1.01 3.495 0 4 C-0.33 3.01 -0.66 2.02 -1 1 C-0.67 0.67 -0.34 0.34 0 0 Z " fill="#473834" transform="translate(310,148)"/>
<path d="M0 0 C0.33 1.32 0.66 2.64 1 4 C0.34 3.34 -0.32 2.68 -1 2 C-0.67 1.34 -0.34 0.68 0 0 Z " fill="#444B47" transform="translate(275,369)"/>
<path d="M0 0 C0.66 0.99 1.32 1.98 2 3 C1.01 2.67 0.02 2.34 -1 2 C-0.67 1.34 -0.34 0.68 0 0 Z " fill="#42403D" transform="translate(118,367)"/>
<path d="M0 0 C0 0.99 0 1.98 0 3 C-0.66 2.34 -1.32 1.68 -2 1 C-1.34 0.67 -0.68 0.34 0 0 Z " fill="#403B39" transform="translate(74,163)"/>
<path d="M0 0 C0 0.99 0 1.98 0 3 C-0.66 2.34 -1.32 1.68 -2 1 C-1.34 0.67 -0.68 0.34 0 0 Z " fill="#494843" transform="translate(78,156)"/>
<path d="M0 0 C0.99 0.33 1.98 0.66 3 1 C2.34 1.66 1.68 2.32 1 3 C0.67 2.01 0.34 1.02 0 0 Z " fill="#463934" transform="translate(90,139)"/>
<path d="M0 0 C0.99 0.33 1.98 0.66 3 1 C2.34 1.66 1.68 2.32 1 3 C0.67 2.01 0.34 1.02 0 0 Z " fill="#473E3A" transform="translate(161,15)"/>
<path d="M0 0 C0.99 0.495 0.99 0.495 2 1 C1.67 1.66 1.34 2.32 1 3 C0.67 2.01 0.34 1.02 0 0 Z " fill="#41433E" transform="translate(70,168)"/>
<path d="M0 0 C0 3 0 3 0 3 Z " fill="#39413C" transform="translate(72,166)"/>
<path d="M0 0 C0.66 0.66 1.32 1.32 2 2 C1.01 2.495 1.01 2.495 0 3 C0 2.01 0 1.02 0 0 Z " fill="#484444" transform="translate(88,142)"/>
<path d="M0 0 C0 3 0 3 0 3 Z " fill="#464A44" transform="translate(298,135)"/>
<path d="M0 0 C0.66 0.66 1.32 1.32 2 2 C1.01 2.495 1.01 2.495 0 3 C0 2.01 0 1.02 0 0 Z " fill="#557A75" transform="translate(95,135)"/>
<path d="M0 0 C0.66 0.66 1.32 1.32 2 2 C1.01 2.495 1.01 2.495 0 3 C0 2.01 0 1.02 0 0 Z " fill="#3E4541" transform="translate(208,18)"/>
<path d="M0 0 C0.33 0.66 0.66 1.32 1 2 C0.34 1.67 -0.32 1.34 -1 1 C-0.67 0.67 -0.34 0.34 0 0 Z " fill="#414A44" transform="translate(273,372)"/>
<path d="M0 0 C0.33 0.66 0.66 1.32 1 2 C0.34 1.67 -0.32 1.34 -1 1 C-0.67 0.67 -0.34 0.34 0 0 Z " fill="#423E3C" transform="translate(253,371)"/>
<path d="M0 0 C0.66 0.66 1.32 1.32 2 2 C1.34 2 0.68 2 0 2 C0 1.34 0 0.68 0 0 Z " fill="#423937" transform="translate(77,256)"/>
<path d="M0 0 C0.33 0.66 0.66 1.32 1 2 C0.34 1.67 -0.32 1.34 -1 1 C-0.67 0.67 -0.34 0.34 0 0 Z " fill="#384641" transform="translate(72,249)"/>
<path d="M0 0 C0.66 0 1.32 0 2 0 C1.67 0.66 1.34 1.32 1 2 C0.67 1.34 0.34 0.68 0 0 Z " fill="#374C48" transform="translate(69,171)"/>
<path d="" fill="#3D4643" transform="translate(0,0)"/>
<path d="" fill="#424440" transform="translate(0,0)"/>
<path d="" fill="#50403F" transform="translate(0,0)"/>
<path d="" fill="#40514F" transform="translate(0,0)"/>
<path d="" fill="#464542" transform="translate(0,0)"/>
<path d="" fill="#45312C" transform="translate(0,0)"/>
<path d="" fill="#403B3C" transform="translate(0,0)"/>
<path d="" fill="#3D3A37" transform="translate(0,0)"/>
<path d="" fill="#3B3C3C" transform="translate(0,0)"/>
<path d="" fill="#454A46" transform="translate(0,0)"/>
<path d="" fill="#3E6060" transform="translate(0,0)"/>
<path d="" fill="#49534D" transform="translate(0,0)"/>
<path d="" fill="#4B504E" transform="translate(0,0)"/>
<path d="" fill="#40463F" transform="translate(0,0)"/>
<path d="" fill="#403A37" transform="translate(0,0)"/>
<path d="" fill="#3D5F5F" transform="translate(0,0)"/>
<path d="" fill="#455854" transform="translate(0,0)"/>
<path d="" fill="#4A5151" transform="translate(0,0)"/>
<path d="" fill="#176E6C" transform="translate(0,0)"/>
<path d="" fill="#2A5F5D" transform="translate(0,0)"/>
<path d="" fill="#495757" transform="translate(0,0)"/>
<path d="" fill="#475C59" transform="translate(0,0)"/>
<path d="" fill="#435F5C" transform="translate(0,0)"/>
<path d="" fill="#504542" transform="translate(0,0)"/>
<path d="" fill="#485A5B" transform="translate(0,0)"/>
<path d="" fill="#485A5B" transform="translate(0,0)"/>
<path d="" fill="#445350" transform="translate(0,0)"/>
<path d="" fill="#3F4946" transform="translate(0,0)"/>
<path d="" fill="#42312B" transform="translate(0,0)"/>
<path d="" fill="#43413D" transform="translate(0,0)"/>
<path d="" fill="#3E4A48" transform="translate(0,0)"/>
<path d="" fill="#514645" transform="translate(0,0)"/>
<path d="" fill="#445959" transform="translate(0,0)"/>
<path d="" fill="#350D0A" transform="translate(0,0)"/>
<path d="" fill="#484848" transform="translate(0,0)"/>
<path d="" fill="#354F4B" transform="translate(0,0)"/>
<path d="" fill="#434746" transform="translate(0,0)"/>
<path d="" fill="#485656" transform="translate(0,0)"/>
<path d="" fill="#455A58" transform="translate(0,0)"/>
<path d="" fill="#46504D" transform="translate(0,0)"/>
<path d="" fill="#435856" transform="translate(0,0)"/>
<path d="" fill="#4A5A57" transform="translate(0,0)"/>
<path d="" fill="#46524C" transform="translate(0,0)"/>
<path d="" fill="#494E4A" transform="translate(0,0)"/>
<path d="" fill="#49514C" transform="translate(0,0)"/>
<path d="" fill="#475B5B" transform="translate(0,0)"/>
<path d="" fill="#434B46" transform="translate(0,0)"/>
<path d="" fill="#485A5B" transform="translate(0,0)"/>
<path d="" fill="#464740" transform="translate(0,0)"/>
<path d="" fill="#495757" transform="translate(0,0)"/>
<path d="" fill="#495C58" transform="translate(0,0)"/>
<path d="" fill="#4C4B44" transform="translate(0,0)"/>
<path d="" fill="#4B5657" transform="translate(0,0)"/>
<path d="" fill="#455650" transform="translate(0,0)"/>
<path d="" fill="#4B4E4B" transform="translate(0,0)"/>
<path d="" fill="#48514E" transform="translate(0,0)"/>
<path d="" fill="#454C49" transform="translate(0,0)"/>
<path d="" fill="#444E48" transform="translate(0,0)"/>
<path d="" fill="#3D4B4B" transform="translate(0,0)"/>
<path d="" fill="#424A45" transform="translate(0,0)"/>
<path d="" fill="#505958" transform="translate(0,0)"/>
<path d="" fill="#434D47" transform="translate(0,0)"/>
<path d="" fill="#4B5B5A" transform="translate(0,0)"/>
<path d="" fill="#454A46" transform="translate(0,0)"/>
<path d="" fill="#525D5C" transform="translate(0,0)"/>
<path d="" fill="#454F4C" transform="translate(0,0)"/>
<path d="" fill="#48524C" transform="translate(0,0)"/>
<path d="" fill="#484946" transform="translate(0,0)"/>
<path d="" fill="#323B38" transform="translate(0,0)"/>
<path d="" fill="#445451" transform="translate(0,0)"/>
<path d="" fill="#474745" transform="translate(0,0)"/>
<path d="" fill="#3E2C2B" transform="translate(0,0)"/>
<path d="" fill="#415B55" transform="translate(0,0)"/>
<path d="" fill="#3E494A" transform="translate(0,0)"/>
<path d="" fill="#46403D" transform="translate(0,0)"/>
<path d="" fill="#3A5B56" transform="translate(0,0)"/>
<path d="" fill="#433837" transform="translate(0,0)"/>
<path d="" fill="#2F1414" transform="translate(0,0)"/>
<path d="" fill="#424B48" transform="translate(0,0)"/>
<path d="" fill="#46544F" transform="translate(0,0)"/>
<path d="" fill="#4A4643" transform="translate(0,0)"/>
<path d="" fill="#485049" transform="translate(0,0)"/>
<path d="" fill="#4B433F" transform="translate(0,0)"/>
<path d="" fill="#474843" transform="translate(0,0)"/>
<path d="" fill="#555553" transform="translate(0,0)"/>
<path d="" fill="#445654" transform="translate(0,0)"/>
<path d="" fill="#445350" transform="translate(0,0)"/>
<path d="" fill="#674E4B" transform="translate(0,0)"/>
<path d="" fill="#474843" transform="translate(0,0)"/>
<path d="" fill="#445B58" transform="translate(0,0)"/>
<path d="" fill="#464B49" transform="translate(0,0)"/>
<path d="" fill="#4C403F" transform="translate(0,0)"/>
<path d="" fill="#494D4C" transform="translate(0,0)"/>
<path d="" fill="#485853" transform="translate(0,0)"/>
<path d="" fill="#445350" transform="translate(0,0)"/>
<path d="" fill="#525050" transform="translate(0,0)"/>
<path d="" fill="#494C48" transform="translate(0,0)"/>
<path d="" fill="#4A413D" transform="translate(0,0)"/>
<path d="" fill="#423935" transform="translate(0,0)"/>
<path d="" fill="#3F2C27" transform="translate(0,0)"/>
<path d="" fill="#345958" transform="translate(0,0)"/>
<path d="" fill="#12554C" transform="translate(0,0)"/>
<path d="" fill="#434641" transform="translate(0,0)"/>
<path d="" fill="#405E5D" transform="translate(0,0)"/>
<path d="" fill="#33433E" transform="translate(0,0)"/>
<path d="" fill="#455852" transform="translate(0,0)"/>
<path d="" fill="#484F4F" transform="translate(0,0)"/>
<path d="" fill="#3C1F1B" transform="translate(0,0)"/>
<path d="" fill="#525550" transform="translate(0,0)"/>
<path d="" fill="#3A3432" transform="translate(0,0)"/>
<path d="" fill="#485D5A" transform="translate(0,0)"/>
<path d="" fill="#465451" transform="translate(0,0)"/>
<path d="" fill="#3F4B47" transform="translate(0,0)"/>
<path d="" fill="#385758" transform="translate(0,0)"/>
<path d="" fill="#393B38" transform="translate(0,0)"/>
<path d="" fill="#445654" transform="translate(0,0)"/>
<path d="" fill="#3F403B" transform="translate(0,0)"/>
<path d="" fill="#434746" transform="translate(0,0)"/>
<path d="" fill="#34453F" transform="translate(0,0)"/>
<path d="" fill="#394742" transform="translate(0,0)"/>
<path d="" fill="#48443F" transform="translate(0,0)"/>
<path d="" fill="#474D48" transform="translate(0,0)"/>
<path d="" fill="#454C47" transform="translate(0,0)"/>
<path d="" fill="#424741" transform="translate(0,0)"/>
<path d="" fill="#3A5048" transform="translate(0,0)"/>
<path d="" fill="#45463F" transform="translate(0,0)"/>
<path d="" fill="#384641" transform="translate(0,0)"/>
<path d="" fill="#585049" transform="translate(0,0)"/>
<path d="" fill="#434641" transform="translate(0,0)"/>
<path d="" fill="#3D0E0C" transform="translate(0,0)"/>
<path d="" fill="#2A312F" transform="translate(0,0)"/>
<path d="" fill="#455E5E" transform="translate(0,0)"/>
<path d="" fill="#424647" transform="translate(0,0)"/>
<path d="" fill="#44554F" transform="translate(0,0)"/>
<path d="" fill="#5F4945" transform="translate(0,0)"/>
<path d="" fill="#33342F" transform="translate(0,0)"/>
<path d="" fill="#306565" transform="translate(0,0)"/>
<path d="" fill="#48514E" transform="translate(0,0)"/>
<path d="" fill="#404C48" transform="translate(0,0)"/>
<path d="" fill="#414D4B" transform="translate(0,0)"/>
<path d="" fill="#4D5454" transform="translate(0,0)"/>
<path d="" fill="#4C5E5F" transform="translate(0,0)"/>
<path d="" fill="#563B38" transform="translate(0,0)"/>
<path d="" fill="#513D38" transform="translate(0,0)"/>
<path d="" fill="#654F4B" transform="translate(0,0)"/>
<path d="" fill="#4B6060" transform="translate(0,0)"/>
<path d="" fill="#394541" transform="translate(0,0)"/>
<path d="" fill="#443C38" transform="translate(0,0)"/>
<path d="" fill="#474745" transform="translate(0,0)"/>
<path d="" fill="#504745" transform="translate(0,0)"/>
<path d="" fill="#44504C" transform="translate(0,0)"/>
<path d="" fill="#3B4443" transform="translate(0,0)"/>
<path d="" fill="#4D4742" transform="translate(0,0)"/>
<path d="" fill="#3E3D36" transform="translate(0,0)"/>
<path d="" fill="#33413F" transform="translate(0,0)"/>
<path d="" fill="#4F433E" transform="translate(0,0)"/>
<path d="" fill="#2F1613" transform="translate(0,0)"/>
<path d="" fill="#4B5454" transform="translate(0,0)"/>
<path d="" fill="#5D524D" transform="translate(0,0)"/>
<path d="" fill="#3D3936" transform="translate(0,0)"/>
<path d="" fill="#604541" transform="translate(0,0)"/>
<path d="" fill="#45514F" transform="translate(0,0)"/>
<path d="" fill="#454A46" transform="translate(0,0)"/>
<path d="" fill="#423D34" transform="translate(0,0)"/>
<path d="" fill="#454541" transform="translate(0,0)"/>
<path d="" fill="#48524C" transform="translate(0,0)"/>
<path d="" fill="#423E39" transform="translate(0,0)"/>
<path d="" fill="#4A4D48" transform="translate(0,0)"/>
<path d="" fill="#4B5753" transform="translate(0,0)"/>
<path d="" fill="#382C24" transform="translate(0,0)"/>
<path d="" fill="#4F5B57" transform="translate(0,0)"/>
</svg>
